<svg width="45" height="58" viewBox="0 0 45 58" fill="none" xmlns="http://www.w3.org/2000/svg">
<path d="M9.31445 35.7715V36.4479C9.31445 40.9427 11.6396 43.7957 13.681 44.9685V27.9327C11.4868 28.9746 9.46182 29.351 9.31445 35.7715Z" fill="#E4B564"/>
<path d="M18.2388 47.6795C19.0521 48.0995 19.9309 48.5305 20.8751 48.9941V31.9911L22.8619 33.9767C23.4031 34.5224 23.7071 35.2594 23.7079 36.0278V48.956C24.6522 48.4923 25.531 48.0559 26.3497 47.6359C26.8659 47.369 27.2985 46.9651 27.5999 46.4685C27.9013 45.972 28.0598 45.4019 28.0581 44.8211V35.1168C28.0588 34.4549 27.9284 33.7994 27.6745 33.1881C27.4207 32.5768 27.0483 32.0216 26.5789 31.5547L21.8794 26.8526L26.5789 22.1504C27.0478 21.6831 27.4199 21.128 27.6737 20.5167C27.9275 19.9055 28.0582 19.2501 28.0581 18.5883V1.73807L23.6915 0.101587V17.6937C23.6907 18.4621 23.3867 19.1991 22.8455 19.7448L20.8587 21.7304V0.0524902L16.4922 1.68897V44.8429C16.4906 45.4313 16.6533 46.0084 16.9618 46.5095C17.2703 47.0106 17.7126 47.4158 18.2388 47.6795Z" fill="#E4B564"/>
<path d="M44.1759 11.055C44.1776 10.1209 43.8943 9.20859 43.3638 8.43962C42.8333 7.67064 42.0808 7.08159 41.2067 6.75102L37.9645 5.5182V19.2319L35.159 22.5813L35.2027 9.11846V4.47085L30.8361 2.83437V44.8374C33.8654 42.3281 35.1208 38.9897 35.1208 31.7456V29.4163L37.9318 26.0397V31.7456C37.9318 45.1156 33.4615 47.3085 24.5483 51.6724C23.7841 52.0488 22.9982 52.4307 22.1904 52.8343C21.3825 52.4307 20.5966 52.0488 19.8324 51.6724C10.9192 47.3085 6.44895 45.1265 6.44895 31.7456V10.1658L9.28175 9.07482V17.11C9.42912 23.5304 11.465 23.9068 13.6483 24.9487V2.78528L3.22316 6.75102C2.34906 7.08159 1.59658 7.67064 1.06607 8.43962C0.535567 9.20859 0.252252 10.1209 0.253914 11.055V12.506L2.11515 11.7968V31.7019C2.11515 47.7776 8.75231 51.0288 17.9439 55.5291C18.9973 56.0746 20.089 56.5819 21.2188 57.1656L22.2067 57.6729L23.1947 57.1656C24.33 56.5873 25.4216 56.0746 26.4696 55.5291C35.6502 51.0288 42.2983 47.7776 42.2983 31.7019V11.8187L44.1596 12.5278L44.1759 11.055Z" fill="#E4B564"/>
</svg>
