<svg width="996" height="966" viewBox="0 0 996 966" fill="none" xmlns="http://www.w3.org/2000/svg">
<path fill-rule="evenodd" clip-rule="evenodd" d="M163.83 552.282L166.372 557.105L165.929 568.312L173.67 572.459L173.716 572.483L179.312 576.071L184.512 572.483L184.652 572.366L184.862 572.39L192.719 572.809L200.95 567.776L201.859 561.485L201.929 560.949L202.489 561.019L211.722 562.254L216.572 560.716L217.039 560.576L217.248 561.019L220.886 568.289L229.07 571.201L230.889 569.57L231.448 560.437L226.179 556.476L225.969 556.336L225.945 556.056L225.572 550.161L222.238 547.016L217.132 543.265L216.875 543.078L216.899 542.775L217.458 533.805L207.269 525.906L207.082 525.766L207.059 525.533L206.103 519.522L202.232 517.681L201.906 517.518V517.169V513.371L200.367 510.621L194.585 510.272L193.559 512.648L193.442 512.951L193.116 512.998L190.761 513.394L190.434 513.441L190.224 513.184L188.616 511.227H186.144L182.367 514.652V521.106V521.293L182.25 521.456L180.012 524.555L181.947 525.999L182.157 526.139V526.419L182.367 529.564L182.413 530.193L181.784 530.17L177.587 529.984L175.885 532.85L177.027 538.558L177.097 538.861L176.887 539.071L163.83 552.282Z" fill="#151515"/>
<path fill-rule="evenodd" clip-rule="evenodd" d="M143.989 490.84L139.582 496.292L137.46 499.624L138.369 504.191L142.939 506.311L142.333 513.324L153.898 520.617L154.201 533.991L163.271 551.233L175.862 538.488L174.743 532.873L174.697 532.663L174.813 532.477L176.772 529.121L176.958 528.819L177.285 528.842L181.202 529.005L181.062 526.745L178.894 525.114L178.451 524.788L178.777 524.345L181.225 520.943V514.629L172.855 506.055L164.554 504.307L164.437 504.284L164.344 504.237L158.445 500.276L158.258 500.16L158.212 499.973L156.743 494.987L153.735 494.475L150.75 496.152L150.424 496.362L150.121 496.105L143.989 490.84Z" fill="#151515"/>
<path fill-rule="evenodd" clip-rule="evenodd" d="M151.94 461.272L146.903 463.439L144.455 468.309L140.794 469.217L140.491 475.298L145.667 478.351L144.408 489.698L150.541 494.987L153.339 493.403L153.525 493.309L153.712 493.333L157.256 493.915L157.606 493.985L157.722 494.335L159.238 499.461L164.88 503.235L173.251 504.983L173.414 505.006L173.531 505.146L181.831 513.627L185.562 510.248L185.725 510.085H185.935H188.896H189.153L189.339 510.295L190.902 512.206L192.627 511.926L193.56 509.736L189.829 504.68L189.713 504.54V504.377L189.339 499.437L185.376 498.179L185.142 498.109L185.026 497.876L183.837 495.313L183.79 495.197V495.08V490.933L181.948 488.51L181.831 488.37V488.16V479.283L168.518 461.901L151.94 461.272Z" fill="#151515"/>
<path fill-rule="evenodd" clip-rule="evenodd" d="M170.779 420.637L162.408 419.938L156.322 414.159L156.929 408.684L151.146 407.472L147.812 415.697L135.641 426.019L136.55 432.706L142.939 432.403L147.812 436.364L149.631 444.892L155.11 444.286L161.499 445.498V449.739L153.548 460.2L168.634 460.759L187.38 447.036L185.911 444.613L185.818 444.473V444.333V441.304V441.048L185.981 440.885L188.22 438.648L188.266 438.624L188.336 438.578L191.507 436.691L191.157 434.174L187.357 433.895L185.305 435.526L185.002 435.759L184.675 435.572L181.318 433.662L181.178 433.568L181.085 433.429L179.009 429.444L178.963 429.328V429.188L178.8 425.53V425.367L178.87 425.227L180.805 421.872L171.828 421.289H171.665L171.525 421.173L170.779 420.637Z" fill="#151515"/>
<path fill-rule="evenodd" clip-rule="evenodd" d="M197.267 369.144L195.891 371.59L185.842 377.369L180.665 385.57L175.186 396.824L174.58 405.958L176.119 411.433L172.155 416.303L171.898 420.054L172.062 420.171L181.645 420.777L185.515 419.099L185.632 419.029H185.748L193.35 419.192L197.5 415.371L197.663 415.208H197.896L203.492 415.534L203.889 415.557L204.005 415.93L206.36 424.015L208.436 422.78L208.622 422.687L208.809 422.71L212.959 423.363L213.192 423.386L213.332 423.596L215.384 426.508L226.249 425.437L232.731 421.266L239.936 410.944L240.216 408.451L235.25 402.416L235.156 402.3L235.133 402.137L234.387 396.661L222.192 394.494L222.076 394.471L221.959 394.401L216.06 390.091L215.943 389.997L215.897 389.881L208.062 375.225V375.202L208.039 375.179L205.568 369.307L203.236 368.072L198.503 369.284L198.386 369.307H198.269L197.267 369.144Z" fill="#151515"/>
<path fill-rule="evenodd" clip-rule="evenodd" d="M169.613 461.458L182.834 478.747L182.95 478.91V479.096V487.974L184.816 490.397L184.932 490.537V490.746V494.964L185.958 497.177L189.969 498.459L196.124 498.762L198.013 495.406L198.083 495.29L198.153 495.243L209.788 485.807L211 476.277L205.941 471.687L205.871 471.617L205.824 471.501L203.259 465.932L203.212 465.792V465.676L203.516 455.983L188.197 447.851L169.613 461.458Z" fill="#151515"/>
<path fill-rule="evenodd" clip-rule="evenodd" d="M210.254 486.902L198.945 496.036L196.917 499.624L196.754 499.927L196.404 499.903L190.481 499.624L190.831 504.144L194.515 509.13L200.741 509.503L201.067 509.526L201.207 509.783L202.979 512.951L203.049 513.068V513.231V516.819L206.873 518.637L207.129 518.753L207.176 519.056L208.132 525.137L218.112 532.896L222.961 530.659L224.267 527.654L223.498 522.784L222.099 519.825L221.959 519.569L222.122 519.312L224.197 515.654L224.29 515.491L224.454 515.398L232.988 511.46L238.001 506.893L238.164 501.325L236.951 497.597L232.475 494.032L232.335 493.939L232.288 493.799L230.819 489.814L226.529 489.395L219.814 492.517L219.674 492.587L219.511 492.564L214.731 492.098L214.498 492.075L214.358 491.888L210.254 486.902Z" fill="#151515"/>
<path fill-rule="evenodd" clip-rule="evenodd" d="M239.143 506.287L239.119 507.173V507.406L238.956 507.569L233.686 512.345L233.617 512.415L233.547 512.462L225.083 516.353L223.241 519.615L224.546 522.388L224.593 522.458V522.528L225.409 527.63L225.432 527.793L225.362 527.956L223.917 531.288L223.847 531.498L223.637 531.591L218.601 533.921L218.041 542.542L222.914 546.107L222.938 546.13L222.961 546.154L226.505 549.509L226.668 549.672L226.691 549.882L227.065 555.73L232.171 559.574L239.656 558.27L254.625 550.557L256.513 547.948L256.677 535.529V535.482V535.436L258.122 527.001L258.146 526.838L258.239 526.722L264.791 518.963L259.521 513.138L256.42 515.118L256.35 515.165L256.28 515.188L253.576 515.98L253.342 516.05L253.133 515.934L248.982 513.534L248.842 513.464L248.749 513.324L245.088 506.59L239.143 506.287Z" fill="#151515"/>
<path fill-rule="evenodd" clip-rule="evenodd" d="M204.659 455.983L204.355 465.582L206.804 470.918L211.98 475.648L212.19 475.834L212.167 476.137L210.907 485.923L215.081 490.979L219.488 491.422L226.203 488.3L226.343 488.23L226.506 488.253L230.75 488.673L231.146 486.18L231.17 486.04L231.24 485.923L234.271 481.776L234.294 481.753L234.317 481.729L240.403 475.205V471.104V470.871L240.566 470.708L244.204 467.074L243.457 459.641L239.074 456.915L238.934 456.845L238.841 456.682L236.952 452.721L227.672 453.164L225.434 455.843L225.131 456.216L224.711 455.96L216.643 451.067L214.382 450.368L204.659 455.983Z" fill="#151515"/>
<path fill-rule="evenodd" clip-rule="evenodd" d="M241.219 475.974L235.18 482.475L232.242 486.483L231.799 489.232L233.291 493.263L237.791 496.828L237.931 496.921L237.978 497.084L239.26 501.068L239.283 501.161V501.255L239.19 505.169L245.462 505.472L245.765 505.495L245.929 505.775L249.683 512.648L253.483 514.839L255.885 514.116L259.336 511.926L259.732 511.67L260.059 512.043L265.864 518.473L269.758 519.825L273.279 519.685L284.937 509.293L284.961 509.27L285.007 509.247L291.186 504.866L289.741 500.975L287.362 494.474L275.424 474.367L268.126 474.087L265.585 476.324L265.258 476.603L264.908 476.37L262.017 474.46V474.436L259.173 472.456L257.75 473.621L257.657 473.714L257.54 473.737L252.434 475.019L252.247 475.066L252.061 474.972L249.216 473.691L247.258 475.508L247.095 475.648L246.885 475.671L241.219 475.974Z" fill="#151515"/>
<path fill-rule="evenodd" clip-rule="evenodd" d="M236.998 451.579L238.747 449.412L241.498 445.428V436.038L237.185 433.661L237.045 433.592L236.975 433.475L233.617 428.209L233.547 428.093V427.976L232.708 422.617L226.739 426.462L226.622 426.532L226.506 426.555L215.15 427.673L214.824 427.697L214.637 427.417L212.539 424.435L208.832 423.852L206.29 425.367L205.684 425.716L205.474 425.017L203.026 416.653L198.083 416.35L193.956 420.171L193.769 420.334H193.559L185.865 420.171L182.157 421.802L179.942 425.646L180.082 429.025L182.018 432.753L184.909 434.384L186.821 432.869L187.007 432.729L187.217 432.753L191.694 433.079L192.137 433.102L192.207 433.568L192.697 436.9L192.743 437.273L192.417 437.483L188.966 439.51L186.961 441.537V444.17L188.546 446.756L204.075 455.004L214.031 449.249L214.241 449.133L214.474 449.203L217.039 449.995L217.086 450.018L217.156 450.065L224.873 454.748L226.972 452.255L227.112 452.068L227.368 452.045L236.998 451.579Z" fill="#151515"/>
<path fill-rule="evenodd" clip-rule="evenodd" d="M233.733 421.825L234.643 427.697L237.837 432.729L242.337 435.223L242.64 435.386V435.712V445.591V445.777L242.547 445.917L239.679 450.065L239.632 450.088L237.954 452.208L239.796 456.053L244.296 458.825L244.529 458.988L244.552 459.268L245.345 467.237L245.368 467.493L245.182 467.679L241.521 471.361V474.832L246.627 474.553L248.703 472.619L248.982 472.363L249.332 472.502L252.34 473.877L257.12 472.666L258.799 471.314L259.125 471.035L259.475 471.291L262.646 473.504L265.164 475.182L267.566 473.085L267.729 472.922L267.962 472.945L275.447 473.248L278.268 468.938L280.203 463.462L278.385 461.808L278.361 461.761L278.338 461.738L274.98 457.427L274.91 457.357L274.887 457.264L272.182 448.969L272.112 448.783L272.182 448.62L274.094 442.725L274.118 442.609L274.188 442.515L280.413 435.339L280.46 435.316V435.292L284.33 431.751L285.193 427.417L280.273 421.615L268.568 421.778H268.405L268.265 421.685L255.325 413.39L255.045 413.204L255.068 412.878L255.371 407.985L253.832 407.216L252.527 408.521L252.41 408.661L252.2 408.684L241.148 410.222L241.031 411.224V411.363L240.938 411.48L233.733 421.825Z" fill="#151515"/>
<path fill-rule="evenodd" clip-rule="evenodd" d="M284.354 433.265L281.253 436.108L275.12 443.168L273.302 448.783L275.937 456.798L279.201 461.016L281.229 462.88L281.509 463.136L281.393 463.485L279.317 469.38L279.294 469.45L279.247 469.497L276.426 473.831L288.061 493.473L296.199 488.603L296.315 488.533H296.478L306.784 488.184L318.116 481.357L315.738 474.716L304.663 460.503L299.16 458.103L299.043 458.057L298.973 457.987L294.753 453.42L294.427 453.07L294.73 452.698L297.807 448.574L299.113 443.378L296.525 440.791L290.976 445.381L290.556 445.731L290.183 445.335L284.913 439.72L284.774 439.58V439.37L284.354 433.265Z" fill="#151515"/>
<path fill-rule="evenodd" clip-rule="evenodd" d="M299.393 442.05L300.139 442.795L300.372 443.028L300.279 443.331L298.88 448.946L298.857 449.063L298.787 449.156L295.919 453.001L299.72 457.125L305.246 459.525L305.362 459.594L305.455 459.711L316.694 474.087L316.764 474.18L316.787 474.25L319.166 480.937L322.826 480.215L325.484 476.394L325.648 476.161H325.927L332.713 475.625L332.969 475.602L333.156 475.788L335.814 478.281L340.057 475.858L341.293 461.062L334.601 457.381L334.321 457.241L334.298 456.915L333.972 450.834L330.871 448.061L325.904 449.692L325.694 449.785L325.484 449.669L309.116 440.978L299.393 442.05Z" fill="#151515"/>
<path fill-rule="evenodd" clip-rule="evenodd" d="M316.018 443.354L325.787 448.55L330.824 446.873L331.15 446.779L331.383 446.989L334.904 450.158L335.067 450.298L335.091 450.531L335.417 456.542L342.179 460.247L342.505 460.433L342.459 460.806L341.223 475.625L361.368 475.811L363.84 474.157L363.98 474.064H364.166L370.788 474.227L371.185 474.25L371.301 474.6L373.143 479.772L378.506 482.125L378.599 482.172L378.669 482.242L383.239 486.879L390.677 479.306L390.841 479.143H391.097L409.167 479.493L409.494 468.122V467.912L409.634 467.749L413.131 463.928L409.191 459.967L399.654 462.344L399.421 462.414L399.235 462.297L384.825 453.863L384.685 453.793L384.615 453.653L375.918 437.646L362.814 429.7L342.762 428.675L335.907 433.475L335.767 433.568L335.604 433.592L327.816 433.918L325.507 437.529L325.438 437.646L325.321 437.716L316.018 443.354Z" fill="#151515"/>
<path fill-rule="evenodd" clip-rule="evenodd" d="M285.963 426.578L294.566 422.687L293.377 418.633L293.331 418.517L293.354 418.377L296.012 403.814L296.105 403.325L296.618 403.348L304.056 403.861L313.476 394.704L312.24 383.823L303.03 383.87L302.96 384.475L302.144 383.73L291.978 374.713L285.916 375.062L285.683 375.086L285.52 374.946L278.245 369.004L278.105 368.888L278.058 368.701L276.776 363.342L271.343 359.498L269.361 361.036L268.452 365.975L268.359 366.488L267.846 366.441L254.462 365.3L254.275 365.276L254.135 365.16L249.635 361.222L236.578 357.82L236.461 357.774L236.368 357.727L229.49 352.741L229.466 352.718L229.42 352.694L225.782 349.036L222.262 352.554L220.186 361.175L220.163 361.269L220.117 361.362L216.246 367.327L216.106 367.536L215.873 367.56L206.803 369.33L209.088 374.713L216.829 389.252L222.518 393.399L234.993 395.613L235.412 395.683L235.459 396.102L236.228 401.834L241.241 407.938L241.381 408.125L241.358 408.335L241.288 409.057L251.85 407.589L253.319 406.121L253.622 405.841L253.972 406.028L256.211 407.146L256.537 407.309L256.514 407.682L256.234 412.622L268.732 420.637L280.53 420.474H280.786L280.973 420.684L285.963 426.578Z" fill="#151515"/>
<path fill-rule="evenodd" clip-rule="evenodd" d="M341.713 428.046L334.345 421.01L334.112 420.777L334.205 420.45L337.05 410.129L331.57 403.441L326.814 403.674L326.65 403.698L326.487 403.605L314.129 395.636L304.663 404.839L304.476 405.026L304.22 405.003L297.038 404.513L294.497 418.447L295.779 422.827L295.919 423.293L295.476 423.503L286.289 427.65L285.403 432.077L285.893 439.09L290.65 444.17L296.222 439.603L296.619 439.277L296.968 439.626L298.367 441.024L309.163 439.836L309.349 439.813L309.489 439.883L314.875 442.748L324.622 436.807L327.023 433.056L327.187 432.823L327.466 432.799L335.394 432.45L341.713 428.046Z" fill="#151515"/>
<path fill-rule="evenodd" clip-rule="evenodd" d="M328.002 645.714L327.676 652.611L331.337 661.419L335.58 660.51L338.635 657.784L345.023 660.813L344.72 665.077L342.902 669.038L345.023 671.461L351.109 673.604L353.557 682.109L355.982 692.757L353.254 699.444L355.982 704.92L362.977 700.656L366.032 701.588L368.153 706.131L369.669 714.053L374.239 717.385L379.718 713.75L384.895 714.053L394.641 718.294L394.338 722.861L396.46 726.519L401.333 727.427L405.297 723.163L409.54 727.427L415.02 730.783L413.807 739.287L415.02 744.157L420.499 750.238L425.069 751.753L429.639 749.026L433.3 750.238L436.028 755.714L447.29 759.372L452.163 755.714L457.036 748.724L448.409 729.874L447.64 729.361L447.5 729.245L447.43 729.058L445.541 723.42L445.425 723.047L445.728 722.814L450.414 719.156L451.533 715.754L449.225 710.768L437.17 707.063L431.551 708.554L428.637 715.405L428.473 715.777L428.054 715.731L420.779 715.032L420.569 715.008L420.429 714.869L413.807 708.228L401.519 705.432L401.263 705.386L401.146 705.153L398.488 700.003L398.302 699.631L398.582 699.351L403.361 694.248L400.354 691.079L400.19 690.893V690.66L400.377 687.468L400.4 687.072L400.773 686.955L405.203 685.651L405.67 678.148L399.351 678.474L396.297 680.501L395.527 681.014L395.41 680.105L394.338 671.228L394.291 670.785L394.711 670.645L397.556 669.527L397.882 664.261L395.014 661.069L394.874 660.906V660.673L395.224 648.277L391.773 643.454L391.68 643.291V643.128V626.562L388.346 619.222L388.276 619.036L388.322 618.873L389.838 612.232L385.454 607.293L385.268 608.062V608.085L383.006 615.588L382.983 615.634L382.959 615.681L381.211 618.989L381.141 619.152L380.977 619.222L368.06 626.469L364.819 632.41L364.703 632.62L364.493 632.69L355.609 635.486H355.562H355.516L350.969 636.161L341.852 644.083L341.712 644.2L341.526 644.223L328.352 645.248L328.002 645.714Z" fill="#151515"/>
<path fill-rule="evenodd" clip-rule="evenodd" d="M264.045 640.402L269.851 645.924L269.245 652.005L267.729 656.875L271.063 662.956L277.755 659.904L281.113 653.217L285.077 648.953L294.496 650.794L299.673 646.53L303.333 646.227L306.062 648.347L315.505 647.742L322.5 645.924L327.21 644.876L327.489 644.503L327.653 640.379L327.163 636.884L322.523 630.22L322.406 630.034L322.43 629.847L323.106 621.692L317.836 615.075L317.766 614.982L317.743 614.865L315.831 607.363L315.808 607.316V607.269L315.481 602.936L311.145 601.491L311.075 601.468L311.051 601.445L298.134 594.478L297.854 594.338L297.831 594.012L297.668 586.975L285.053 584.785L284.96 584.762L284.867 584.715L271.436 576.886L271.157 576.723V576.397V572.017L269.291 568.731L262.786 568.056L262.506 568.032L262.366 567.799L252.806 552.771L240.099 559.318L240.029 559.365L239.936 559.388L232.568 560.646L232.008 569.873V570.106L231.822 570.269L229.793 572.087L230.376 579.426L234.2 584.412L239.912 585.6L240.076 585.647L240.192 585.764L250.475 595.713L250.638 595.876V596.132V603.588V603.798L250.498 603.961L245.951 609.11L245.672 613.957L249.356 614.213L253.576 612.395L254.345 612.069L254.369 612.908L254.672 621.133L257.26 624.861L263.252 626.049L263.695 626.142L263.719 626.608L264.045 640.402Z" fill="#151515"/>
<path fill-rule="evenodd" clip-rule="evenodd" d="M316.624 602.889L316.927 607.153L318.816 614.469L324.132 621.156L324.272 621.343L324.249 621.552L323.572 629.731L328.166 636.371L328.236 636.464L328.259 636.604L328.795 640.262V640.309V640.355L328.632 644.083L341.246 643.105L350.363 635.206L350.48 635.09L350.643 635.066L355.306 634.391L363.933 631.665L367.128 625.77L367.221 625.63L367.361 625.56L380.278 618.314L381.934 615.215L384.172 607.782L384.988 604.38L378.53 595.06L375.778 592.614L372.84 594.618L372.747 594.688L372.63 594.711L370.019 595.247L369.646 595.317L369.436 595.014L364.19 587.488L362.604 588.653L356.006 595.596L355.959 595.666L355.889 595.69L352.065 597.95L351.855 598.089L351.622 598.02L346.749 596.808L346.609 596.761L346.516 596.668L339.031 590.074L333.995 586.393L329.332 586.882L321.567 587.907L318.489 592.264L318.349 594.175L320.798 595.41L321.194 595.596L321.101 595.992L320.238 601.049L320.191 601.351L319.912 601.491L316.624 602.889Z" fill="#151515"/>
<path fill-rule="evenodd" clip-rule="evenodd" d="M298.811 586.742L298.974 593.639L311.541 600.443L315.995 601.91L319.166 600.559L319.912 596.225L317.51 595.014L317.161 594.851L317.207 594.478L317.371 592.031V591.868L317.464 591.752L320.798 587.045L320.938 586.835L321.171 586.812L329.192 585.764H329.215L334.089 585.228L334.322 585.204L334.485 585.344L339.708 589.189H339.731L339.754 589.212L347.146 595.736L351.669 596.878L355.26 594.757L361.812 587.861L361.859 587.814L361.882 587.791L363.514 586.579L358.641 580.568L358.361 580.218L358.664 579.845L360.763 577.422L360.32 572.226L350.503 571.551L350.247 571.527L350.084 571.318L344.488 563.349L337.446 563.023L337.073 563L336.933 562.673L334.368 556.289L326.651 547.132L325.625 548.414L324.249 555.241L324.226 555.357L324.156 555.45L322.43 558.06L322.174 558.433L321.754 558.27L309.956 554.192V566.448V566.681L309.816 566.821L307.274 569.687L309.559 574.044L309.653 574.253L309.583 574.486L308.534 577.446L308.487 577.562L308.394 577.679L298.811 586.742Z" fill="#151515"/>
<path fill-rule="evenodd" clip-rule="evenodd" d="M273.116 520.803L269.711 520.943L269.595 520.966L269.502 520.92L265.724 519.615L259.196 527.327L257.797 535.599L257.633 548.134V548.321L257.54 548.46L255.465 551.326L255.372 551.443L255.255 551.513L253.81 552.258L263.16 566.961L269.688 567.636L269.991 567.66L270.131 567.916L272.23 571.574L272.3 571.714V571.854V576.071L285.357 583.69L298.064 585.904L307.508 576.956L308.417 574.347L306.109 569.85L305.922 569.5L306.179 569.221L308.837 566.238V553.913L304.29 553.61L303.964 553.586L303.824 553.284L300.629 546.41L293.331 545.105L290.93 547.202L290.417 547.622L290.067 547.062L285.543 539.56L285.474 539.443L285.45 539.327L284.797 530.939H277.126H276.73L276.59 530.566L273.116 520.803Z" fill="#151515"/>
<path fill-rule="evenodd" clip-rule="evenodd" d="M291.792 505.822L285.683 510.155L274.165 520.407L277.523 529.82H285.334H285.847L285.893 530.333L286.593 539.094L290.696 545.897L292.818 544.08L293.005 543.894L293.285 543.94L301.119 545.338L301.422 545.385L301.539 545.664L304.71 552.491L308.837 552.794V552.584L309.583 552.864L321.708 557.058L323.153 554.914L324.529 548.041L324.552 547.925L324.645 547.808L326.208 545.921L328.726 541.727L328.866 538.721L325.508 536.81L325.275 536.671L325.228 536.391L324.739 532.826L322.664 531.661L321.568 533.479L321.404 533.735H321.101L312.917 534.061L312.008 536.344L311.845 536.764L311.378 536.694L307.205 535.995L306.925 535.948L306.808 535.715L302.448 527.514L302.378 527.421V527.304L301.189 515.305L291.792 505.822Z" fill="#151515"/>
<path fill-rule="evenodd" clip-rule="evenodd" d="M330.008 538.698L329.844 541.913L329.821 542.053L329.751 542.169L327.35 546.177L335.277 555.637L335.347 555.707L335.371 555.8L336.49 558.549L342.365 556.848H342.389L342.459 556.825L350.223 555.847L351.039 549.835L351.063 549.556L351.319 549.416L355.329 547.156L355.399 547.109L355.469 547.086L363.467 545.082L364.283 538.418L362.091 526.628L346.866 521.735L338.168 524.205L337.329 533.222L337.306 533.479L337.096 533.642L330.008 538.698Z" fill="#151515"/>
<path fill-rule="evenodd" clip-rule="evenodd" d="M288.574 494.474L290.813 500.579L292.351 504.773L302.121 514.652L302.261 514.792L302.284 515.002L303.497 527.071L307.671 534.923L311.121 535.506L312.007 533.315L312.147 532.966H312.52L320.751 532.617L321.987 530.613L322.267 530.147L322.756 530.426L325.531 531.987L325.787 532.127L325.834 532.407L326.3 535.948L329.425 537.743L336.233 532.873L337.073 523.716L337.119 523.32L337.492 523.227L346.329 520.71L346.749 507.522L346.772 506.987L347.285 506.963L355.283 506.637L359.573 503.189L359.876 502.932L360.226 503.165L368.83 508.548L375.615 499.041L375.941 498.575L376.408 498.925L384.499 504.75L390.118 502.28L392.59 499.367L387.786 493.123L377.947 483.104L372.467 480.727L372.234 480.611L372.164 480.378L370.369 475.345L364.306 475.205L361.835 476.836L361.695 476.93H361.532L340.757 476.766L336 479.469L335.65 479.679L335.324 479.399L332.549 476.79L326.277 477.256L323.642 481.054L323.502 481.24L323.269 481.287L319.026 482.125L307.251 489.232L307.111 489.302H306.971L296.642 489.651L288.574 494.474Z" fill="#151515"/>
<path fill-rule="evenodd" clip-rule="evenodd" d="M368.48 509.666L359.969 504.33L355.842 507.616L355.679 507.732L355.516 507.755L347.868 508.082L347.472 520.733L362.744 525.673L363.07 525.766L363.14 526.092L365.402 538.302L365.425 538.395L365.402 538.465L364.656 544.663L368.76 543.032L368.83 543.008H368.9L381.677 541.237L381.817 541.214L381.934 541.261L390.98 544.08L391.19 544.15L391.307 544.336L394.151 549.066L398.768 544.756L398.442 534.644L396.367 529.681L390.188 522.784L374.216 519.988L374.076 519.965L373.959 519.871L370.229 516.842L370.065 516.726L370.019 516.539L368.48 509.666Z" fill="#151515"/>
<path fill-rule="evenodd" clip-rule="evenodd" d="M398.792 546.27L394.408 550.371L393.895 550.837L393.522 550.254L390.444 545.105L381.724 542.379L369.133 544.127L364.493 545.944V545.99L364.12 546.084L355.796 548.157L352.112 550.254L351.272 556.429L351.226 556.848L350.783 556.918L342.645 557.943L336.933 559.598L337.865 561.904L344.814 562.231L345.093 562.254L345.257 562.464L350.853 570.432L360.879 571.108L361.345 571.155L361.392 571.644L361.928 577.562L361.951 577.795L361.788 577.981L359.83 580.241L364.423 585.903L364.446 585.857L364.796 586.346L370.159 594.058L372.304 593.639L375.498 591.425L375.871 591.192L376.198 591.472L379.345 594.268L379.392 594.291L379.439 594.361L386.061 603.938L386.201 604.147L386.154 604.404L385.781 605.941L390.887 611.696L391.097 611.906L391.027 612.186L389.465 618.919L392.613 625.886H394.012L395.994 621.412L398.465 615.914L398.628 615.564L399.025 615.587L403.268 615.751L403.432 615.774L403.548 615.844L409.144 619.292L410.473 617.428L409.471 611.277L405.507 607.316L405.32 607.13L405.343 606.85L406.253 600.629L406.323 600.07L406.882 600.14L417.235 601.375L425.652 598.672L426.748 591.775L423.764 591.332L423.554 591.309L423.414 591.123L421.479 588.839L421.082 588.373L421.572 588L426.002 584.785L426.212 583.27L422.365 582.828L421.968 582.758L421.875 582.362L421.339 579.892L421.292 579.682L421.409 579.496L423.647 575.488L422.201 574.393L414.717 578.494L414.53 578.587L414.32 578.541L405.46 576.77L405.204 576.723L405.087 576.513L401.356 570.479L401.31 570.409L401.286 570.362L398.978 563.069L398.955 563V562.906L398.792 546.27Z" fill="#151515"/>
<path fill-rule="evenodd" clip-rule="evenodd" d="M401.287 566.565L402.36 569.943L405.904 575.721L414.344 577.399L421.992 573.228L422.295 573.065L422.598 573.275L424.72 574.883L425.117 575.185L424.883 575.605L422.505 579.869L422.902 581.733L426.935 582.222L427.518 582.292L427.425 582.874L427.075 585.181L427.052 585.414L426.865 585.554L422.715 588.56L424.161 590.237L427.448 590.727H432.695L438.034 585.903L438.197 573.718L438.221 573.135L438.804 573.182L443.677 573.508L448.76 567.939L451.931 559.691L451.954 559.575L452.024 559.505L456.944 554.262L462.61 539.676L459.742 537.44L459.695 537.416L459.649 537.37L456.314 533.525L451.837 534.364L451.558 534.411L451.348 534.224L445.472 528.679L436.285 528.353L436.145 531.521V531.568L435.609 535.995L435.586 536.228L435.399 536.368L428.847 541.867L428.568 542.1L428.241 541.936L422.995 539.513L418.938 539.187L414.811 554.192L414.717 554.542L414.344 554.588L405.437 555.963L401.287 566.565Z" fill="#151515"/>
<path fill-rule="evenodd" clip-rule="evenodd" d="M438.827 586.719L433.301 591.728L433.138 591.868H432.904H427.891L426.725 599.208L426.679 599.534L426.329 599.65L417.469 602.493L417.329 602.516H417.212L407.279 601.328L406.51 606.734L410.404 610.601L410.544 610.718L410.567 610.928L411.616 617.475L411.663 617.708L411.523 617.894L409.751 620.387L409.448 620.807L409.005 620.527L403.082 616.892L399.352 616.729L397.02 621.879L394.898 626.678L394.735 627.005H394.362H392.8V642.942L396.251 647.765L396.367 647.928V648.114L396.018 660.487L398.885 663.679L399.049 663.865L399.025 664.098L398.676 669.946L398.652 670.319L398.303 670.459L395.528 671.531L396.437 679.057L398.862 677.426L398.979 677.356L399.142 677.332L406.253 676.983L406.883 676.96L406.836 677.589L406.3 686.117L406.277 686.489L405.904 686.606L401.497 687.911L401.357 690.474L404.551 693.852L404.924 694.225L404.551 694.621L399.678 699.84L402.033 704.384L414.204 707.18L414.368 707.203L414.484 707.32L421.083 713.937L427.751 714.566L430.619 707.855L430.736 707.599L430.992 707.529L436.682 706.015L437.498 700.912L438.221 695.576L438.267 695.18L438.64 695.11L445.892 693.409L446.731 687.584L446.754 687.491L446.801 687.375L452.84 677.099L452.933 676.96L453.05 676.89L463.193 671.205L463.449 671.065L463.706 671.205L468.742 673.791H471.19L473.032 667.29L473.125 666.987L473.405 666.894L478.465 665.333L481.263 663.12L477.369 659.065L475.084 660.137L471.353 662.094L471.144 662.187L470.91 662.118L454.752 656.805L454.659 656.759L454.589 656.689L450.858 653.683L450.742 653.59L450.695 653.473L446.428 643.874L446.335 643.687L446.405 643.478L448.363 637.792L448.433 637.606L448.596 637.49L456.244 632.876L456.407 632.783L456.571 632.806L460.838 633.156L461.094 633.179L461.234 633.365L464.615 637.816L464.731 637.956V638.142L464.895 645.505L467.973 647.975L471.936 646.157L472.053 646.087L472.216 646.11L475.947 646.46L476.087 646.483L476.227 646.577L478.698 648.347L478.745 648.371L478.768 648.394L484.504 653.963L487.185 652.471L489.074 648.673L485.553 643.99L485.483 643.874L485.46 643.734L484.924 640.006L484.9 639.82L484.97 639.656L488.654 632.83L489.447 627.284L486.463 626.818H486.393L486.323 626.795L475.83 622.158L475.784 622.135L475.714 622.088L471.283 618.547L471.144 618.43L471.097 618.267L469.465 613.281L465.198 614.399L464.825 614.492L464.592 614.166L462.656 611.51L462.563 611.394L462.54 611.254L461.84 606.64L461.211 603.844L456.407 602.679L455.988 602.586L455.964 602.167L455.475 595.922L444.26 595.41L443.7 595.386V594.851V586.556L438.827 586.719Z" fill="#151515"/>
<path fill-rule="evenodd" clip-rule="evenodd" d="M473.359 490.467L465.874 493.892L465.664 493.985L465.431 493.915L444.119 485.69L436.938 493.752L436.565 494.148L436.145 493.822L432.764 491.119L432.554 490.933V490.677V477.908L430.782 473.737L430.642 473.411L430.899 473.132L447.967 454.072L447.244 445.824L442.301 439.813L435.586 440.885L425.909 447.199L425.746 447.315L425.559 447.292L416.932 446.943L415.72 449.971L421.829 455.727L422.249 456.123L421.852 456.542L414.344 464.301H414.321L410.614 468.355L410.264 480.075V480.634H409.704L391.331 480.285L384.033 487.694L388.626 492.354L388.649 492.401L393.756 499.041L394.035 499.391L393.732 499.74L390.911 503.119L390.818 503.212L390.701 503.258L384.662 505.938L384.359 506.054L384.103 505.868L376.198 500.16L369.6 509.433L371.092 516.097L374.543 518.893L390.561 521.712L390.771 521.735L390.888 521.898L397.276 528.982L397.346 529.052L397.37 529.145L399.515 534.294L399.561 534.387V534.504L399.911 544.965V545.222L400.098 562.813L400.727 564.84L404.505 555.241L404.621 554.938L404.948 554.891L413.808 553.54L417.982 538.441L418.098 537.999L418.564 538.022L423.181 538.395H423.274L423.391 538.441L428.381 540.771L434.513 535.645L435.003 531.451L435.189 527.747L435.213 527.188L435.772 527.211L445.728 527.56H445.938L446.078 527.723L451.907 533.199L456.431 532.36L456.734 532.29L456.967 532.547L460.464 536.577L463.216 538.721L467.879 533.455L471.516 528.539L467.389 524.904L467.203 524.741V524.485V518.543V518.17L467.529 518.031L483.315 511.39L482.778 502.909L473.359 490.467Z" fill="#151515"/>
<path fill-rule="evenodd" clip-rule="evenodd" d="M825.252 321.262L829.496 321.729L830.289 318.909L827.467 315.764L824.017 316.859L825.252 321.262Z" fill="#151515"/>
<path fill-rule="evenodd" clip-rule="evenodd" d="M838.775 343.071L843.788 344.959L848.965 344.003L846.773 336.314L840.477 339.786L838.775 343.071Z" fill="#151515"/>
<path fill-rule="evenodd" clip-rule="evenodd" d="M850.598 346.892L844.465 347.265L841.434 358.216L831.385 349.083L828.633 358.519L839.289 370.076L839.919 380.095L820.426 362.76L819.82 351.809L828.027 341.79L829.263 325.666L825.905 327.181L821.942 338.132L815.856 343.607L809.467 345.424L803.382 354.558L803.685 378.58L788.762 401.997L789.695 416.303H804.897L817.395 431.192V445.498L808.558 456.146L810.983 460.992L818.001 464.953L804.897 468.006L801.26 454.305L810.983 437.273L806.739 424.505L791.817 422.384L783.609 430.283L782.677 448.224L768.99 462.227L756.515 466.771L747.981 475.904L719.372 458.266V449.738L738.562 458.569L748.611 454.608L764.723 444.286L775.682 422.384L773.863 410.525L792.423 366.418L794.545 358.822L792.423 348.78L804.594 337.223L807.042 321.099L797.599 308.634L807.299 307.352L805.876 295.632L796.27 294.91L795.547 303.461L797.599 308.634L791.513 306.187L782.373 313.201L771.415 327.181L762.904 335.382L750.127 338.435L743.435 344.819L750.127 353.649L742.829 366.721L732.779 369.773L732.476 374.316L741.29 383.45L738.258 391.955L739.774 397.43L743.132 402.3L731.87 412.645L728.209 406.866L725.155 393.795L713.286 374.736L706.478 380.398L710.465 387.504L710.628 387.784L710.465 388.063L702.141 402.859L705.359 413.437L705.429 413.67L705.289 413.903L700.113 421.872L699.996 422.035L699.809 422.105L691.509 424.877L685.983 431.331L685.819 431.518H685.563L664.625 432.45L653.969 441.257L653.829 441.374H653.619L646.764 441.49L646.135 459.291V459.454L646.041 459.594L637.834 471.128L643.15 482.335L663.342 483.85L663.505 483.873L663.645 483.966L673.275 491.422L673.485 491.585V491.865L673.788 501.558L677.192 504.68L700.299 505.915H700.556L700.719 506.124L707.877 515.118L707.994 515.281V515.468L708.6 530.193L712.54 535.319L712.657 535.482V535.692L712.354 545.338H727.626H727.859L727.999 545.501L741.919 558.176L761.109 566.518L761.272 566.588L761.365 566.751L768.453 578.424L780.951 586.043L793.659 587.255L804.058 579.636L804.431 579.333L804.781 579.659L814.247 588.513L823.97 588.21L824.273 588.187L824.437 588.466L831.735 599.091L835.512 599.394L835.722 599.417L835.885 599.557L842.88 606.57L857.383 588.163L858.292 576.304V576.141L858.385 576.001L867.992 562.767L866.196 552.118L855.261 543.917L854.981 543.707L855.051 543.358L857.779 527.863L850.504 517.868L850.388 517.704L850.411 517.471L852.696 495.942L843.579 484.083L843.393 483.85L843.486 483.57L847.124 472.666L843.509 464.045L843.253 463.462L843.883 463.276L855.657 460.13L860.624 447.478L858.012 432.59L845.725 429.514L845.515 429.467L845.398 429.304L834.09 414.369L833.926 414.159L833.996 413.903L836.258 404.863L836.328 404.606L836.584 404.49L853.512 396.917L855.214 390.137L848.056 374.946L847.963 374.782L848.01 374.619L849.805 364.67L849.898 364.274L850.271 364.204L857.686 362.969L850.761 348.29L850.714 348.197V348.104L850.598 346.892Z" fill="#151515"/>
<path fill-rule="evenodd" clip-rule="evenodd" d="M597.007 709.021L605.564 708.881L612.559 720.74L618.202 721.626L618.388 721.439L620.23 716.477L620.277 716.337L620.37 716.267L630.373 706.9L631.935 699.794L631.958 699.631L632.052 699.537L638.091 692.874L638.3 692.641L638.604 692.711L646.135 694.225L648.093 691.149L649.306 685.721L647.231 680.105L640.819 677.659L640.562 677.542L640.492 677.286L639.536 673.791L639.466 673.511L639.653 673.278L642.707 669.62L643.64 660.3L643.663 660.091L643.803 659.951L654.575 649.513L654.972 649.116L655.368 649.513L661.384 655.524L661.71 655.873L661.43 656.269L658.143 660.929L662.34 661.698L662.456 661.722L662.573 661.792L673.462 669.574L681.786 668.339L681.972 668.316L682.136 668.409L689.947 672.766L697.525 673.069L707.807 666.032L689.434 652.285L689.34 652.192L689.27 652.075L680.41 634.67V634.647L673.858 620.038L668.752 618.826H668.729L668.682 618.803L657.91 614.376L657.816 614.33L657.746 614.26L652.337 609.157L650.751 613.421L650.588 613.794H650.192L641.588 613.491L639.56 615.821L639.49 615.891L639.396 615.937L634.01 618.78L633.824 618.873L633.637 618.85L629.463 617.941L626.805 619.991L626.665 620.108H626.456H621.093H620.976L620.86 620.061L614.051 617.126L611.137 622.671L611.02 622.904L610.74 622.951L601.111 624.838L594.908 635.533L594.745 635.835L594.395 635.812L577.234 635.253L572.548 645.155L572.851 654.778V655.221L572.431 655.361L567.861 656.619L566.299 664.261L570.193 673.278L570.216 673.325V673.372L571.825 679.336L579.053 681.527L579.17 681.573L579.263 681.666L585.955 687.724L586.118 687.887L586.141 688.12L586.328 694.365L596.191 702.963L596.354 703.102L596.377 703.335L597.007 708.974V709.021Z" fill="#151515"/>
<path fill-rule="evenodd" clip-rule="evenodd" d="M515.678 698.512L532.815 702.496L542.538 708.578L548.344 704.011L556.855 708.578L585.464 714.053L595.863 709.3L595.887 709.067L595.28 703.685L585.394 695.04L585.231 694.877L585.208 694.644L585.021 688.4L578.586 682.575L571.194 680.315L570.891 680.222L570.798 679.919L569.142 673.698L565.179 664.541L565.109 664.378L565.155 664.215L566.741 656.479L558.603 652.611L552.564 655.64L552.168 655.827L551.865 655.477L546.945 649.116L536.406 645.481L524.421 649.139L525.051 652.518L525.074 652.565V652.634L524.864 663.492V663.772L524.631 663.935L508.333 676.121L507.937 681.992L520.201 689.332L520.667 689.611L520.388 690.101L515.678 698.512Z" fill="#151515"/>
<path fill-rule="evenodd" clip-rule="evenodd" d="M448.386 728.336L451.861 723.769L463.426 722.861L464.335 714.659L469.814 711.607L475.597 711.91L482.592 717.385L486.859 713.447L481.683 704.92L479.258 696.415L485.017 690.311L490.193 688.796L498.121 697.324L514.536 698.349V698.302L514.559 698.209L514.606 698.116L519.129 690.008L507.074 682.785L506.771 682.598L506.795 682.249L507.214 675.771L507.238 675.515L507.447 675.352L523.746 663.19L523.932 652.658L522.51 645.179L518.15 641.008L515.818 642.429L515.608 642.569L515.375 642.499L511.201 641.474L511.061 641.427L510.968 641.334L493.621 626.492L490.613 627.261L489.773 633.086L489.75 633.179L489.703 633.272L486.066 640.029L486.556 643.431L490.193 648.301L490.403 648.557L490.24 648.883L488.118 653.147L488.048 653.287L487.885 653.38L484.69 655.151L484.317 655.361L484.014 655.058L478.022 649.233L475.69 647.579L472.263 647.252L468.136 649.14L467.809 649.279L467.553 649.07L463.985 646.227L463.775 646.064V645.784L463.612 638.352L460.488 634.274L456.664 633.948L449.366 638.352L447.547 643.641L451.674 652.891L455.195 655.757L471.05 660.976L474.571 659.135L474.594 659.112L477.252 657.877L477.625 657.714L477.905 657.994L482.522 662.793L482.942 663.236L482.452 663.632L479.094 666.288L479.001 666.358L478.885 666.382L474.035 667.896L472.169 674.513L472.053 674.933H471.633H468.602H468.485L468.345 674.863L463.472 672.346L453.749 677.799L447.85 687.864L446.964 693.969L446.918 694.342L446.544 694.435L439.27 696.112L438.617 701.052V701.075L437.801 706.085L449.809 709.743L450.042 709.836L450.159 710.069L452.653 715.498L452.747 715.684L452.677 715.894L451.441 719.669L451.371 719.832L451.231 719.925L446.754 723.443L448.386 728.336Z" fill="#151515"/>
<path fill-rule="evenodd" clip-rule="evenodd" d="M569.842 507.965L566.881 513.044L564.736 517.937L564.713 517.984L564.666 518.054L554.896 530.985L554.873 531.009L554.85 531.032L540.16 545.408L540.09 545.478L539.997 545.525L527.663 551.14L527.406 556.662L531.37 564.281L531.533 564.631L531.277 564.91L525.937 571.108L525.098 579.263L525.074 579.426L524.981 579.566L521.507 583.876L521.367 584.063L521.111 584.086L509.452 584.645L507.82 591.985L507.773 592.218L507.587 592.334L502.69 595.503L502.294 595.759L501.968 595.386L497.281 590.214L490.776 600.489L490.636 600.722L490.356 600.745L479.654 601.887L470.49 612.722L472.122 617.778L476.366 621.156L486.695 625.723L490.076 626.212L493.62 625.327L493.923 625.257L494.133 625.443L511.597 640.402L515.421 641.357L517.94 639.796L518.313 639.587L518.616 639.889L523.442 644.48L523.559 644.596L523.605 644.782L524.212 648.021L536.266 644.34L536.43 644.293L536.616 644.34L547.482 648.114L547.645 648.161L547.738 648.301L552.471 654.405L558.347 651.493L558.58 651.353L558.837 651.47L567.417 655.57L571.684 654.382L571.428 645.039V644.899L571.474 644.782L576.371 634.437L576.534 634.111H576.907L594.092 634.67L600.084 624.348L595.677 617.754L595.56 617.591L595.584 617.382L596.167 611.067V611.044L597.822 599.604L586.071 592.055L585.907 591.938L585.837 591.775L583.832 586.602L583.716 586.3L583.925 586.043L590.641 577.912L589.265 570.991L586.957 558.619L586.91 558.386L587.05 558.176L592.693 550.301L592.413 541.098L585.907 525.58L574.855 519.056L574.645 518.916L574.599 518.683L572.897 511.087L569.842 507.965Z" fill="#151515"/>
<path fill-rule="evenodd" clip-rule="evenodd" d="M645.622 441.514L639.023 441.607L629.533 450.018L629.393 450.158H629.184L620.603 450.601L620.277 450.624L620.09 450.344L617.292 445.941L603.465 458.266L601.25 466.212L601.204 466.375L601.087 466.491L586.468 479.516L570.426 506.963L573.83 510.412L573.947 510.528L573.97 510.691L575.649 518.194L586.654 524.694L586.817 524.788L586.887 524.951L593.509 540.771L593.556 540.865V540.958L593.836 550.464V550.651L593.742 550.79L588.123 558.643L590.385 570.758L591.807 577.958L591.877 578.214L591.69 578.424L584.999 586.509L586.817 591.192L598.755 598.858L599.059 599.045L599.012 599.417L597.286 611.207L596.727 617.288L601.017 623.696L610.274 621.902L613.305 616.123L613.538 615.657L614.028 615.867L621.186 618.989H626.269L628.974 616.892L629.184 616.729L629.44 616.776L633.66 617.685L638.767 614.982L640.912 612.535L641.098 612.326L641.355 612.349L649.819 612.652L651.567 607.968L651.871 607.176L652.5 607.759L658.446 613.374L669.055 617.731L674.394 618.989L674.674 619.059L674.791 619.316L681.413 634.158L690.226 651.446L708.81 665.38L719.046 659.531L720.235 653.264L720.281 653.031L720.491 652.891L726.693 648.86L726.88 648.743L727.067 648.767L734.388 649.652L740.753 629.288L740.823 629.125L740.963 629.008L749.963 622.181L750.197 621.995L750.476 622.088L760.106 624.884L760.199 624.908L760.269 624.954L773.187 633.552L792.889 633.855H793.076L793.239 633.971L806.926 644.014L823.387 634.554L823.691 634.367L823.994 634.577L832.504 640.682L842.157 639.47L852.743 634.927L854.655 630.01L842.647 623.113L842.367 622.95V622.624V607.642L835.209 600.512L831.385 600.21L831.129 600.186L830.965 599.953L823.691 589.352L814.037 589.655H813.804L813.641 589.492L804.361 580.801L794.148 588.303L793.985 588.42L793.775 588.397L780.718 587.162H780.601L780.485 587.092L767.731 579.31L767.614 579.24L767.544 579.123L760.503 567.473L741.383 559.178L741.29 559.132L741.22 559.062L727.416 546.48H711.771H711.188L711.211 545.897L711.514 535.855L707.597 530.729L707.481 530.589V530.403L706.874 515.677L699.996 507.033L676.936 505.798H676.749L676.586 505.658L672.856 502.233L672.692 502.07L672.669 501.837L672.366 492.168L663.086 484.968L642.73 483.43L642.404 483.407L642.264 483.104L636.668 471.314L636.528 471.011L636.738 470.732L645.016 459.082L645.622 441.514Z" fill="#151515"/>
<path fill-rule="evenodd" clip-rule="evenodd" d="M248.866 312.502L246.114 314.692L244.459 319.002L244.785 333.309L244.809 333.728L244.412 333.844L233.85 337.246L233.197 342.163L233.127 342.605L232.684 342.652L229.21 342.978L228.254 346.45L228.231 346.59L228.114 346.706L226.575 348.244L230.189 351.855L236.951 356.748L250.055 360.173L250.195 360.197L250.288 360.29L254.742 364.181L267.426 365.276L268.289 360.616L268.335 360.406L268.498 360.267L270.993 358.356L271.32 358.1L271.669 358.333L277.592 362.55L277.755 362.666L277.825 362.876L279.107 368.235L286.056 373.92L292.165 373.548H292.398L292.561 373.687L302.074 382.169L302.517 377.811L300.862 372.499L296.548 367.792L296.268 367.49L296.502 367.117L300.605 360.756L299.859 353.789L296.082 346.403L295.989 346.24L296.035 346.03L297.061 340.881L293.447 340.392L293.074 340.345L292.981 339.972L292.118 336.547L285.659 336.384L285.356 336.361L285.193 336.081L283.281 332.633L283.118 332.377L283.281 332.097L284.913 328.998L284.587 324.921L279.574 323.266L278.105 325.223L277.918 325.48L277.592 325.456L274.141 325.06L273.955 325.037L273.838 324.921L270.387 321.845L264.908 322.567L264.535 322.637L264.348 322.288L261.177 316.696L257.563 314.995L251.314 318.117L250.708 318.42L250.521 317.767L248.866 312.502Z" fill="#151515"/>
<path fill-rule="evenodd" clip-rule="evenodd" d="M314.596 394.588L326.954 402.556L331.804 402.3L332.083 402.277L332.27 402.51L338.099 409.663L338.286 409.872L338.216 410.152L335.371 420.427L342.832 427.557L363.001 428.582L363.164 428.605L363.281 428.675L376.618 436.737L376.758 436.83L376.828 436.97L385.525 452.977L399.608 461.202L409.215 458.802L409.541 458.732L409.751 458.942L413.925 463.113L420.64 456.169L414.671 450.531L414.391 450.274L414.531 449.902L416.023 446.15L416.186 445.778L416.583 445.801L425.42 446.174L434.816 440.023V433.545L428.358 430.306L427.891 430.073L428.078 429.607L430.13 424.132L424.114 422.128L420.173 423.922L419.637 424.178L419.427 423.619L414.671 411.55L402.989 411.2L402.733 411.177L402.569 410.991L395.108 402.416L388.02 397.943L387.973 397.896L387.927 397.873L381.165 391.465H381.141L381.118 391.442L361.182 368.864L360.996 368.678L361.043 368.422L362.535 357.144L362.558 356.958L362.675 356.842L370.019 348.454L365.193 346.846L364.797 346.706V346.31V338.598L358.804 338.668L354.747 342.535L354.584 342.699H354.351L345.91 342.302H345.7L345.537 342.139L341.597 337.992L337.819 337.899L332.247 339.763L323.246 346.52L317.371 358.845L317.207 359.195L316.834 359.172L307.041 358.426L301.585 361.338L297.691 367.35L301.795 371.823L301.865 371.917L301.912 372.033L303.637 377.602L303.66 377.695V377.812L303.148 382.751L312.731 382.681H313.244L313.314 383.194L314.596 394.588Z" fill="#151515"/>
<path fill-rule="evenodd" clip-rule="evenodd" d="M247.141 284.542L241.242 285.217L231.798 292.51L226.319 300.106L215.687 299.5L209.298 310.148L201.673 311.057L201.37 319.282L190.108 326.575L190.715 337.223L195.285 343.001L190.108 349.386L191.321 354.558L198.619 356.376L200.158 363.971L197.85 368.095L198.339 368.165L203.166 366.907L203.376 366.86L203.562 366.954L206.104 368.305L215.43 366.511L219.114 360.826L221.189 352.135L221.236 351.972L221.353 351.879L227.205 346.007L228.231 342.302L228.324 341.906L228.721 341.883L232.125 341.557L232.778 336.757L232.824 336.384L233.174 336.291L243.667 332.912L243.317 318.932V318.816L243.34 318.723L245.112 314.156L245.159 314.016L245.275 313.923L248.656 311.22L252.037 300.735L247.607 293.582L247.537 293.466V293.303L247.141 284.542Z" fill="#151515"/>
<path fill-rule="evenodd" clip-rule="evenodd" d="M304.872 269.63L294.8 270.003L282.325 274.569L281.719 284.612L282.932 289.155L279.294 292.207L276.543 285.217L271.67 284.915L264.068 277.598L254.625 283.68L248.26 284.425L248.656 293.116L253.133 300.362L253.273 300.595L253.203 300.828L249.752 311.546L251.408 316.812L257.307 313.853L257.563 313.737L257.82 313.853L261.83 315.764L261.993 315.834L262.063 315.997L265.141 321.402L270.504 320.68L270.76 320.657L270.947 320.82L274.444 323.965L277.382 324.291L278.921 322.241L279.154 321.915L279.551 322.055L285.287 323.965L285.66 324.082L285.683 324.455L286.056 329.068L286.079 329.231L285.986 329.371L284.424 332.353L286.033 335.242L292.585 335.429L293.028 335.452L293.121 335.872L293.984 339.32L297.808 339.856L298.414 339.926L298.297 340.508L297.178 346.077L300.909 353.37L300.979 353.463V353.556L301.655 360.01L306.645 357.331L306.808 357.261H306.971L316.531 358.006L322.29 345.914L322.337 345.797L322.453 345.704L331.64 338.807L331.71 338.761L331.803 338.714L337.539 336.803L337.632 336.78H337.726L345.746 336.967L349.943 333.611L342.179 323.499L337.236 322.567L336.886 322.497L336.793 322.171L334.438 314.389L331.337 314.692L330.824 319.398L330.754 320.028L330.124 319.888L327.653 319.305L327.396 319.259L327.28 319.049L325.391 315.787L322.966 316.509L322.593 322.055L322.546 322.707L321.917 322.567L318.466 321.798L318.21 321.752L318.07 321.495L316.134 317.418L306.551 317.604H306.248L306.062 317.348L302.214 311.663H293.144H292.888L292.701 311.453L290.23 308.378L289.927 308.028L290.23 307.679L305.782 288.876L304.872 269.63Z" fill="#151515"/>
<path fill-rule="evenodd" clip-rule="evenodd" d="M438.966 231.767L441.507 216.18L445.168 221.352L443.629 232.303L448.199 242.019L449.412 258.143L455.8 267.882L457.339 277.901L481.076 292.207L495.672 289.481L506.631 274.569L509.685 258.749L504.812 239.899L505.418 212.522L502.387 202.479L494.762 190.317L493.55 180.88L496.908 178.76L501.454 185.144L506.024 182.115L501.757 173.89L485.646 162.939L462.516 160.819L457.946 164.174L446.381 170.861L446.684 179.972L438.756 192.763L423.251 193.066L418.074 199.567L429.429 214.688L429.593 214.898L429.523 215.131L427.727 224.125L437.124 228.808L437.287 228.878L437.38 229.041L438.966 231.767Z" fill="#151515"/>
<path fill-rule="evenodd" clip-rule="evenodd" d="M410.59 295.073L409.844 290.087L410.777 285.823L406.813 280.348L410.474 273.661L421.712 259.658L431.156 256.629L436.635 247.192L438.687 233.515L436.472 229.74L426.842 224.941L426.446 224.731L426.539 224.311L428.381 215.155L417.352 200.476L404.365 216.786L397.673 216.483L389.162 222.261L383.077 221.958L380.629 228.039L377.901 233.212L373.027 236.847L375.755 242.019L372.421 245.375L361.159 243.534L358.105 254.182L355.983 270.306L349.291 273.055L319.469 269.094L305.992 269.583L306.412 278.274L313.71 276.83L313.78 276.806L313.897 276.83L323.456 278.158L323.689 278.204L323.829 278.391L327.653 283.75L327.77 283.913V284.099L327.583 290.81L327.56 291.019L327.443 291.159L324.132 295.004L324.506 302.46V302.506V302.553L323.55 309.077L323.526 309.31L323.34 309.426L318.49 313.178L317.091 316.812L318.98 320.75L321.521 321.333L321.847 316.043L321.871 315.647L322.267 315.531L325.508 314.576L325.928 314.459L326.161 314.832L328.143 318.257L329.775 318.63L330.265 314.11L330.311 313.644L330.778 313.597L334.811 313.224L335.254 313.178L335.394 313.62L337.773 321.519L342.599 322.428L342.809 322.451L342.949 322.637L350.55 332.54L351.693 329.418L350.923 319.958V319.795L350.993 319.655L354.444 312.945L354.467 312.875L354.514 312.828L366.965 299.407L367.175 299.174L367.501 299.244L374.776 300.968L375.009 301.015L375.126 301.248L377.434 305.465L377.527 305.628L377.504 305.815L376.338 313.108L376.315 313.294L376.175 313.411L370.836 318.583L361.765 328.812L359.317 337.526L365.356 337.456H365.939V338.039V345.891L370.836 347.522L374.356 343.654L374.52 343.467H374.776H379.206L381.002 335.266L381.025 335.126L381.142 335.01L389.489 326.295L387.46 322.894L384.826 318.373L384.709 318.164L384.756 317.931L386.644 311.174L386.691 311.034L386.784 310.917L394.945 302.762L395.668 298.429L395.784 297.823L396.367 297.986L401.987 299.477L405.437 300.176L409.751 295.516L409.821 295.423L409.914 295.376L410.59 295.073Z" fill="#151515"/>
<path fill-rule="evenodd" clip-rule="evenodd" d="M538.762 356.678L527.546 371.148L531.464 377.206L531.65 377.485L531.487 377.788L528.945 382.495L530.787 390.184L530.881 390.58L530.508 390.813L523.373 394.937L523.07 395.123L522.79 394.937L513.51 388.995L504.649 389.368L504.183 389.391L504.09 388.925L502.621 382.355L480.307 365.183L477.835 368.888L484.038 379.116L484.154 379.303L484.108 379.512L482.242 388.18L482.196 388.343L482.079 388.459L476.74 393.795L479.164 397.919L479.211 398.036L479.234 398.176L479.607 402.672L479.654 403.255L479.071 403.278L470.304 403.651L463.402 412.715L463.076 418.167L471.353 421.592L474.851 417.398L474.944 417.282L475.107 417.235L483.012 414.602L483.478 414.439L483.688 414.882L488.584 424.668L488.794 425.064L488.421 425.367L470.188 439.859L469.814 447.898V448.154L469.605 448.317L463.193 453.21L462.936 453.396L462.633 453.28L454.682 450.018L448.946 454.678L431.972 473.621L433.65 477.582L433.697 477.698V477.815V490.397L436.448 492.61L443.537 484.642L443.793 484.362L444.166 484.502L465.617 492.773L473.102 489.348L477.322 478.957L477.462 478.56L477.882 478.607L492.128 479.958L492.338 479.982L492.502 480.145L503.041 492.028L514.582 498.016L530.787 499.787L537.199 496.268L537.526 496.082L537.829 496.338L555.316 510.668L566.065 512.182L585.535 478.863L585.581 478.793L585.651 478.747L600.201 465.769L602.416 457.8L602.463 457.637L602.579 457.521L617.035 444.659L617.525 444.216L617.898 444.775L620.883 449.459L628.927 449.039L638.44 440.628L638.603 440.488H638.79L653.409 440.255L664.042 431.448L664.205 431.331H664.391L685.283 430.399L690.762 424.015L690.856 423.899L691.019 423.852L699.273 421.103L704.193 413.507L700.975 402.952L700.905 402.719L701.022 402.509L704.869 395.706L700.835 394.96L698.224 398.875L698.061 399.131H697.757H692.814L686.402 405.096L686.192 405.282L685.889 405.212L678.241 403.418L672.366 410.198L672.202 410.385L671.969 410.408L654.598 411.806L654.389 411.829L654.225 411.713L578.819 357.89L571.568 360.15L571.475 360.197L571.358 360.173L538.762 356.678Z" fill="#151515"/>
<path fill-rule="evenodd" clip-rule="evenodd" d="M423.647 273.987L425.979 276.573L429.173 274.453L428.264 270.725L425.839 268.907L423.951 271.494L423.647 273.987Z" fill="#151515"/>
<path fill-rule="evenodd" clip-rule="evenodd" d="M650.004 282.468L653.921 279.626V273.218L649.305 272.17L650.004 282.468Z" fill="#151515"/>
<path fill-rule="evenodd" clip-rule="evenodd" d="M712.703 373.734L706.897 363.063L691.695 346.636H680.13L678.591 353.347L678.288 363.365L670.08 368.235L665.51 367.326L662.479 371.893L656.697 367.326L663.388 361.245V354.558L641.774 354.255L631.118 346.333L614.68 347.871L608.898 339.949L618.644 339.04L623.82 328.998L610.716 325.969L604.631 333.262L601.599 327.786L568.117 319.585L563.85 323.849L558.977 319.282L541.326 329.604L532.209 320.796L534.937 312.898L532.209 304.976L543.168 301.341L553.218 308.331L558.067 300.409L557.764 286.126L544.381 271.517L540.417 285.823L522.16 297.683L520.644 306.793L511.924 314.669L515.328 332.912L524.911 347.265L533.702 348.36L533.958 348.407L534.098 348.617L538.831 355.537L571.358 359.032L578.749 356.725L579.029 356.632L579.262 356.795L654.715 410.664L671.642 409.29L677.612 402.416L677.821 402.16L678.171 402.253L685.866 404.047L692.208 398.152L692.371 398.013H692.604H697.454L700.112 394.028L700.322 393.725L700.672 393.795L705.452 394.657L709.322 387.784L705.242 380.538L705.032 380.141L705.382 379.839L712.703 373.734Z" fill="#151515"/>
<path fill-rule="evenodd" clip-rule="evenodd" d="M685.959 342.209L679.197 342.931L673.857 334.031L675.28 325.853L683.814 323.709L686.308 332.959L685.959 342.209Z" fill="#151515"/>
<path fill-rule="evenodd" clip-rule="evenodd" d="M581.478 300.316L586.724 307.189L599.058 307.516L600.481 302.925L599.711 296.052L593.159 288.946L583.763 292.208L581.478 300.316Z" fill="#151515"/>
<path fill-rule="evenodd" clip-rule="evenodd" d="M673.135 309.496L676.003 282.468L678.125 272.17L687.031 262.57L697.71 259.005L701.977 252.97L699.482 245.491L707.294 250.477L714.428 249.755L716.2 244.419L720.817 244.792L721.19 239.456L726.879 241.577L727.952 236.241L732.219 240.878L735.413 236.614L736.486 230.206L742.525 234.47L746.442 230.905L754.626 232.699L761.388 224.871L813.337 223.799L825.788 217.042L827.211 207.792L821.895 201.408L809.42 204.6L807.298 209.213L785.94 207.442L776.684 199.613L768.5 204.25L760.315 200.685L750.01 207.442H741.476L737.209 211.007L731.496 204.949L728.652 217.415L722.239 217.764L721.54 222.727L705.522 227.713L699.832 225.22L696.265 229.484L700.905 234.121L694.493 240.155L684.164 235.891L682.741 243.72L675.28 243.371L674.93 249.405L664.601 254.741L658.212 252.598L651.077 257.933L650.728 265.762L657.489 272.519L657.839 282.818L651.45 289.225L656.417 300.246L662.106 300.968L662.479 305.931L668.868 307.352L673.135 309.496Z" fill="#151515"/>
<path fill-rule="evenodd" clip-rule="evenodd" d="M510.921 315.577L501.758 323.849L497.514 315.927L503.6 314.715L495.975 300.409L484.433 302.25L472.845 298.289L458.552 300.409L450.648 320.191L444.842 316.836L436.634 297.683L437.847 282.771L424.463 284.309L420.802 297.077L426.585 304.067L421.106 311.36L412.292 306.49L410.776 296.238L410.497 296.355L406.066 301.178L405.833 301.411L405.53 301.341L401.753 300.595L401.73 300.572L396.693 299.244L396.04 303.135L396.017 303.322L395.877 303.438L387.693 311.616L385.921 318.024L388.439 322.311L390.701 326.086L390.911 326.435L390.608 326.761L382.074 335.662L380.232 344.166L380.115 344.609H379.672H375.032L371.418 348.57L371.395 348.593L363.63 357.447L362.185 368.305L381.957 390.65L388.672 397.011L395.784 401.484L395.854 401.531L395.9 401.601L403.268 410.059L415.067 410.431L415.44 410.455L415.58 410.804L420.243 422.641L423.857 421.01L424.043 420.916L424.253 420.986L431.038 423.246L431.598 423.433L431.388 423.992L429.313 429.537L435.632 432.683L435.935 432.846V433.196V439.673L442.44 438.648L442.767 438.601L442.977 438.857L448.246 445.242L448.339 445.381L448.363 445.568L449.016 453.14L454.215 448.923L454.472 448.713L454.775 448.853L462.772 452.115L468.695 447.572L469.068 439.556V439.3L469.278 439.137L487.371 424.761L482.895 415.837L475.596 418.26L471.959 422.641L471.679 422.967L471.306 422.804L462.259 419.052L461.886 418.889L461.91 418.493L462.283 412.482L462.306 412.295L462.399 412.156L469.557 402.766L469.721 402.556L469.977 402.533L478.418 402.183L478.115 398.385L475.55 393.982L475.317 393.609L475.62 393.306L481.146 387.761L482.965 379.489L476.669 369.167L476.483 368.864L476.692 368.561L479.7 364.041L480.027 363.529L480.516 363.901L503.483 381.586L503.646 381.726L503.693 381.912L505.092 388.227L513.649 387.877L513.836 387.854L513.976 387.947L523.092 393.795L529.574 390.044L527.802 382.541L527.756 382.332L527.849 382.145L530.321 377.555L526.38 371.427L526.147 371.101L526.403 370.775L537.805 356.073L533.305 349.479L524.515 348.36L524.258 348.337L524.118 348.127L514.325 333.448L514.279 333.355L514.255 333.239L510.921 315.577Z" fill="#151515"/>
<path fill-rule="evenodd" clip-rule="evenodd" d="M815.319 107.998L819.097 111.54L824.296 107.066L821.708 103.291L817.907 104.223L815.319 107.998Z" fill="#151515"/>
<path fill-rule="evenodd" clip-rule="evenodd" d="M823.573 111.074L826.418 113.427L831.384 110.841L832.807 104.923L829.006 103.99L823.573 111.074Z" fill="#151515"/>
<path fill-rule="evenodd" clip-rule="evenodd" d="M837.05 110.351L841.993 114.848L851.926 109.885L850.037 104.223L843.182 101.404L837.283 106.344L837.05 110.351Z" fill="#151515"/>
<path fill-rule="evenodd" clip-rule="evenodd" d="M847.66 99.7498L851.927 101.87L854.748 98.5615L851.204 95.2529L847.66 99.7498Z" fill="#151515"/>
<path fill-rule="evenodd" clip-rule="evenodd" d="M866.336 87.9368L867.735 92.4337L872.002 90.7793L870.346 85.3505L866.336 87.9368Z" fill="#151515"/>
<path fill-rule="evenodd" clip-rule="evenodd" d="M852.16 76.846L854.515 78.9662L857.592 76.613L853.092 72.3724L850.737 74.2597L852.16 76.846Z" fill="#151515"/>
<path fill-rule="evenodd" clip-rule="evenodd" d="M839.405 79.6885L840.105 83.2301L844.838 86.2824L847.659 82.0418L845.071 76.8459L839.405 79.6885Z" fill="#151515"/>
<path fill-rule="evenodd" clip-rule="evenodd" d="M830.195 83.4631L839.172 91.4783L837.982 98.3285L829.006 95.2529L823.106 88.426L830.195 83.4631Z" fill="#151515"/>
<path fill-rule="evenodd" clip-rule="evenodd" d="M855.237 109.186L856.403 114.382L866.336 114.149L870.346 107.532L867.035 102.103L862.792 108.231L856.403 106.6L855.237 109.186Z" fill="#151515"/>
<path fill-rule="evenodd" clip-rule="evenodd" d="M828.073 120.976L830.661 124.751L833.04 121.698L830.661 117.667L828.073 120.976Z" fill="#151515"/>
<path fill-rule="evenodd" clip-rule="evenodd" d="M803.521 95.02L807.532 101.87L812.242 97.3733L809.887 91.7114L803.521 95.02Z" fill="#151515"/>
<path fill-rule="evenodd" clip-rule="evenodd" d="M815.086 92.8996L816.019 96.9072L818.63 95.0199L816.508 90.5463L815.086 92.8996Z" fill="#151515"/>
<path fill-rule="evenodd" clip-rule="evenodd" d="M810.843 70.485L813.897 74.7256L816.742 71.9063L812.009 67.6425L810.843 70.485Z" fill="#151515"/>
<path fill-rule="evenodd" clip-rule="evenodd" d="M782.979 61.9806L784.378 67.6425L788.645 70.9511L794.778 70.4851L798.555 73.5607L800.91 70.7181L796.2 66.4775L791.933 67.759L782.979 61.9806Z" fill="#151515"/>
<path fill-rule="evenodd" clip-rule="evenodd" d="M784.145 76.38L783.679 81.3429L788.156 85.8165L792.656 91.4784L794.055 88.8921L792.889 83.4632L799.021 82.0419L806.809 84.6515L811.775 79.6886L807.299 74.4927L803.521 73.0714L799.487 76.147L794.055 76.846L790.767 78.2673L784.145 76.38Z" fill="#151515"/>
<path fill-rule="evenodd" clip-rule="evenodd" d="M793.821 95.0199L792.889 98.3285L796.433 100.449L796.666 95.9752L793.821 95.0199Z" fill="#151515"/>
<path fill-rule="evenodd" clip-rule="evenodd" d="M93.5547 242.625L114.143 287.105L126.944 280.441L128.063 255.953L121.931 246.516L119.156 257.63L113.024 253.739L108.034 239.27L101.902 243.184L93.5547 242.625Z" fill="#151515"/>
<path fill-rule="evenodd" clip-rule="evenodd" d="M165.883 569.57L165.766 572.623L156.323 572.32L152.662 577.795L147.812 578.401L142.03 588.746L132.284 592.404L125.289 582.059L108.85 579.915L101.249 587.837L117.664 597.553L112.814 600.909L104.28 595.736L99.4072 599.581L102.322 605.336H108.314H108.571L108.757 605.545L115.939 614.423L116.172 614.702L116.009 615.028L110.669 625.257L117.617 633.855L117.851 634.134L117.687 634.461L116.055 637.723L115.659 644.573L119.739 649.582L123.517 645.248L123.773 644.946L124.146 645.085L130.465 647.462L132.773 643.641L133.03 643.221L133.473 643.408L138.532 645.505L138.882 645.645V646.041V653.706L144.898 656.502L145.224 656.665V657.015V664.448L148.349 669.504L155.717 668.735L158.118 664.354L158.282 664.051H158.608H170.616L177.891 655.99L177.541 652.029L170.803 651.237L170.336 651.19L170.313 650.724L169.893 644.969L163.644 636.231L163.505 635.998L163.574 635.742L166.885 623.743L162.805 617.615L162.455 617.125L162.992 616.822L171.852 611.743L172.248 611.533L172.551 611.836L175.746 615.028L181.925 614.656L185.515 607.479L184.256 595.387L184.233 595.06L184.513 594.874L193.956 588.723L192.347 573.904L184.979 573.531L179.663 577.213L179.336 577.422L179.033 577.236L173.111 573.438L165.883 569.57Z" fill="#151515"/>
<path fill-rule="evenodd" clip-rule="evenodd" d="M229.443 659.648L239.726 656.269L241.241 648.347L250.078 643.478L259.498 641.054L262.902 640.029L262.599 627.098L256.817 625.933L256.584 625.886L256.444 625.7L253.646 621.646L253.552 621.506V621.343L253.273 613.77L249.659 615.308L249.542 615.378L249.402 615.355L245.042 615.052L244.482 615.005L244.529 614.446L244.832 608.854V608.644L244.972 608.504L249.495 603.378V596.365L239.516 586.672L233.757 585.461L233.547 585.414L233.43 585.251L229.373 579.962L229.28 579.846L229.257 579.682L228.674 572.25L220.28 569.267L220.07 569.197L219.977 568.988L216.456 561.951L211.932 563.373L211.816 563.396L211.699 563.373L202.909 562.208L202.046 568.196L202 568.452L201.79 568.592L193.466 573.671L195.098 588.933L195.144 589.282L194.865 589.492L185.421 595.62L186.657 607.526L186.681 607.689L186.587 607.852L182.787 615.448L182.647 615.751H182.32L175.559 616.193H175.302L175.116 616.007L172.038 612.955L164.063 617.498L167.957 623.323L168.097 623.533L168.051 623.789L164.74 635.789L170.755 644.223L185.725 645.854L187.263 641.614L187.403 641.218L187.823 641.241L192.906 641.66L193.326 641.707L193.419 642.126L195.028 649.745L200.764 650.514L205.847 647.299L206.057 647.182L206.266 647.229L224.337 650.957L224.593 651.004L224.71 651.237L229.443 659.648Z" fill="#151515"/>
<path fill-rule="evenodd" clip-rule="evenodd" d="M185.118 729.128L194.678 732.6L220.233 731.994L218.111 721.952L224.5 720.74L229.373 693.363L225.106 687.584L218.718 686.07L219.627 680.897L227.555 673.605L220.49 663.795L223.894 662.048L228.371 660.067L223.847 652.005L206.267 648.371L201.58 651.33L204.798 659.764L204.868 659.927L204.821 660.09L201.487 675.935L205.614 683.367L205.73 683.577L205.66 683.81L201.487 695.926L203.142 703.359L203.305 704.127L202.513 704.058L195.051 703.219L191.111 704.943L190.691 705.129L190.435 704.733L187.73 700.702L185.328 703.592L189.245 712.912L189.409 713.308L189.082 713.564L183.789 717.921L183.743 717.968L183.696 717.991L178.963 720.484L185.118 729.128Z" fill="#151515"/>
<path fill-rule="evenodd" clip-rule="evenodd" d="M165.09 732.996L174.58 733.206L183.673 729.035L177.658 720.624L177.284 720.088L177.867 719.785L183.114 717.012L188.033 712.958L184.14 703.708L184.023 703.382L184.233 703.125L187.357 699.397L187.824 698.815L188.267 699.444L191.111 703.708L194.749 702.124L194.888 702.054L195.028 702.077L201.86 702.846L200.345 695.996L200.298 695.833L200.345 695.693L204.495 683.693L200.391 676.307L200.298 676.121L200.345 675.911L203.679 660.021L200.484 651.609L194.469 650.817L194.072 650.77L194.002 650.374L192.394 642.755L188.173 642.406L186.634 646.646L186.471 647.066L186.028 647.019L171.059 645.411L171.409 650.165L178.124 650.957L178.59 651.027L178.613 651.469L179.057 656.129L179.08 656.362L178.917 656.549L171.292 665.007L171.129 665.193H170.872H158.958L156.579 669.527L156.439 669.807L156.136 669.83L148.092 670.669L147.742 670.715L147.556 670.412L144.175 664.914L144.105 664.774V664.634V657.364L138.089 654.568L137.763 654.429V654.056V646.413L133.473 644.619L131.211 648.44L130.954 648.837L130.511 648.673L124.123 646.274L120.462 650.491L124.589 655.547L128.926 654.778L129.276 654.708L129.485 655.011L132.33 659.065L138.043 660.696L138.322 660.766L138.439 661.046L140.957 667.756L146.856 677.845L146.95 678.031L146.926 678.241L145.247 688.167L151.496 699.421L151.543 699.491L151.566 699.561L153.665 708.438L153.688 708.508V708.578L153.268 717.618L162.828 727.171L162.898 727.241L162.945 727.357L165.09 732.996Z" fill="#151515"/>
<path fill-rule="evenodd" clip-rule="evenodd" d="M106.309 764.637L103.068 767.876L103.675 777.01L112.208 789.172L111.579 801.941L110.063 808.022L117.665 817.458L121.325 815.921L123.447 812.286L128.017 814.709L132.89 816.247L138.673 812.589V796.465L142.637 773.655L157.233 759.675L158.469 745.065L156.93 738.681L164.018 733.346L161.943 727.893L152.639 718.597L149.235 721.253L149.072 721.369H148.862L138.929 720.95L133.543 725.191L135.455 729.012L135.665 729.478L135.245 729.734L130.442 732.716L136.528 741.407L143.08 742.642L143.429 742.712L143.523 743.062L145.644 751.077L145.761 751.566L145.318 751.752L140.235 753.85L140.118 753.919L139.979 753.896L134.849 753.5L128.25 766.268L127.924 766.897L127.388 766.432L122.305 762.144L119.297 765.546L119.11 765.756L118.83 765.732L106.309 764.637Z" fill="#151515"/>
<path fill-rule="evenodd" clip-rule="evenodd" d="M103.651 753.244L105.796 759.069L106.706 763.519L118.644 764.568L121.838 760.979L122.211 760.56L122.631 760.933L127.574 765.127L134.01 752.661L134.196 752.312L134.569 752.358L139.932 752.754L144.409 750.89L142.52 743.691L136.108 742.479L135.875 742.433L135.735 742.246L127.038 729.804L120.253 729.408L116.988 730.852L120.696 744.739L120.812 745.205L120.393 745.392L103.651 753.244Z" fill="#151515"/>
<path fill-rule="evenodd" clip-rule="evenodd" d="M99.5703 747.395L99.7102 749.935L102.928 752.312L119.483 744.576L115.962 731.318L112.977 732.623L110.109 741.687L110.063 741.85L109.923 741.943L105.703 745.322L105.633 745.392L105.539 745.415L99.5703 747.395Z" fill="#151515"/>
<path fill-rule="evenodd" clip-rule="evenodd" d="M86.7695 728.243L87.2359 738.681L99.4071 744.46L99.5004 746.231L105.073 744.39L109.083 741.174L111.975 732.041L112.045 731.808L112.278 731.715L119.063 728.686L113.747 724.398L111.765 727.847L111.555 728.22L111.135 728.103L97.3319 724.771L87.0027 728.08L86.7695 728.243Z" fill="#151515"/>
<path fill-rule="evenodd" clip-rule="evenodd" d="M77.792 707.273L84.2041 714.356L84.5072 724.072L86.4424 727.101L86.4891 727.055L86.5823 727.031L97.1448 723.653L97.2847 723.606L97.4479 723.63L110.995 726.915L115.308 719.482L113.396 713.354H107.031H106.821L106.658 713.191L94.1369 701.937L85.23 701.518L77.792 707.273Z" fill="#151515"/>
<path fill-rule="evenodd" clip-rule="evenodd" d="M62.124 678.125L69.5853 690.637V698.233L77.0233 706.434L84.7178 700.493L84.881 700.376H85.0909L93.7646 700.772L93.3683 691.685L93.3449 691.359L93.6247 691.196L98.2647 688.097L91.6195 675.562L89.3811 680.082L89.1946 680.431L88.7982 680.385L80.7773 679.546L80.5208 679.523L80.3809 679.313L75.9741 673.325L62.124 678.125Z" fill="#151515"/>
<path fill-rule="evenodd" clip-rule="evenodd" d="M47.9711 598.159L48.5773 608.807L45.2197 612.768L46.7353 617.335L51.6085 620.993L51.3054 628.589L54.0334 640.752L53.1241 652.005L51.0022 670.552L53.4272 673.907L58.3003 671.764L61.4947 677.123L75.9743 672.113L76.3707 671.974L76.6272 672.3L81.1273 678.428L88.5186 679.197L93.8348 668.572L93.9281 668.385L94.1146 668.315L99.8039 666.032L97.6587 662.817L97.4722 662.537L97.6354 662.234L100.806 656.293L97.3323 653.217L96.8893 652.821L97.309 652.402L101.389 648.324L101.786 644.736L101.809 644.41L102.112 644.27L106.752 642.15L107.219 641.94L107.475 642.383L110.529 647.718L114.47 644.503L114.866 637.56V637.443L114.913 637.327L116.452 634.274L109.504 625.677L109.27 625.397L109.434 625.071L114.773 614.842L107.988 606.477H101.926H101.576L101.413 606.174L97.7287 598.882L86.5834 588.769L85.0678 603.378L78.9822 600.326L67.4171 600.932L63.1502 606.407L54.6163 592.125L47.9711 598.159ZM59.3962 665.1L58.9765 657.924L58.9532 657.388L58.9299 656.852L59.4662 656.805L60.0024 656.759L67.4404 656.013V651.539V651.26V650.98L67.6736 650.817L67.9068 650.654L76.3007 644.456L70.9612 641.124L70.8913 641.078L70.8213 641.031L70.7514 640.961L70.6814 640.891L63.9196 632.876L63.7564 632.69L63.5932 632.503L63.6165 632.247L63.6398 631.991L64.4792 625.653L64.5725 624.954L64.6658 624.279L65.3186 624.512L65.9715 624.745L71.8939 626.865L72.0804 626.935L72.267 627.005L72.3836 627.168L72.4768 627.331L77.2101 634.833H83.7854H84.3216H84.8579L84.8812 635.369L84.9046 635.905L85.3009 642.592L89.9876 646.507L90.1974 646.693L90.4073 646.88L90.384 647.159V647.439L89.9643 656.735V656.922V657.108L89.871 657.248L89.7544 657.388L82.9926 666.265L82.1532 667.36L81.3138 668.455L81.1273 667.081L80.9641 665.706L80.0081 658.017L69.399 669.713L69.1192 670.016L68.8394 670.319L68.4664 670.133L68.0933 669.946L60.0491 666.079L59.746 665.939L59.4429 665.799L59.4195 665.473L59.3962 665.1Z" fill="#151515"/>
<path fill-rule="evenodd" clip-rule="evenodd" d="M114.983 645.551L110.786 649L110.273 649.419L109.923 648.86L106.799 643.385L102.928 645.155L102.532 648.627L102.508 648.837L102.368 648.976L98.5678 652.774L101.925 655.757L102.252 656.036L102.042 656.432L98.8243 662.467L101.179 665.985L101.552 666.568L100.899 666.824L94.7672 669.294L92.249 674.327L99.5005 688.027L99.757 688.47L99.3139 688.75L94.5107 691.942L94.9071 701.122L107.265 712.213H113.794H114.213L114.353 712.609L116.452 719.366L116.522 719.599L116.405 719.832L114.33 723.42L120.369 728.266L127.364 728.686L127.644 728.709L127.807 728.919L129.789 731.785L134.196 729.058L132.33 725.284L132.12 724.864L132.47 724.585L138.393 719.948L138.556 719.808L138.766 719.832L148.698 720.228L152.149 717.572L152.546 708.601L150.471 699.887L144.175 688.563L144.082 688.377L144.105 688.19L145.761 678.241L139.955 668.292L139.931 668.246L139.908 668.199L137.46 661.722L131.817 660.091L131.631 660.044L131.514 659.881L128.763 655.943L124.473 656.735L124.146 656.782L123.936 656.526L114.983 645.551Z" fill="#151515"/>
<path fill-rule="evenodd" clip-rule="evenodd" d="M60.1182 657.854L60.5379 665.03L68.5821 668.851L80.0072 656.246L80.8233 655.314L80.9865 656.549L82.1057 665.473L88.8675 656.596L89.2872 647.299L84.3907 643.245L84.2042 643.082V642.825L83.7845 635.905H76.9061H76.603L76.4398 635.626L71.52 627.867L65.6209 625.77L64.7582 632.084L71.52 640.122L77.5823 643.897L78.2818 644.34L77.6289 644.829L68.5821 651.516H68.5588V656.502V657.015L68.0458 657.062L60.1182 657.854Z" fill="#151515"/>
<path fill-rule="evenodd" clip-rule="evenodd" d="M863.142 924.312L902.29 909.61L916.304 908.701L918.729 912.336L939.737 916.903L941.252 926.339L949.18 930.277L971.378 932.723L980.215 933.935L984.785 938.199L991.78 935.752L998.168 930.277L1002.74 919.046L995.137 909.913L996.046 895.933L1000.92 894.395L1001.22 888.011L1007.61 887.708L1009.38 880.858L1005.28 872.889L1005.09 872.54L1005.35 872.26L1009.83 867.204L1008.66 862.521L1008.57 862.218L1008.8 861.985L1012 858.793L1011.25 855.531L1002.09 856.113L1001.9 856.136L1001.74 856.02L978.816 840.036L977.44 846.35L977.347 846.77L976.927 846.793L949.04 849.263L947.291 856.602L947.198 856.952L946.872 857.045L941.439 858.466L942.022 863.569L942.045 863.919L941.765 864.105L934.234 868.905L933.931 873.914L933.908 874.334L933.488 874.427L928.335 875.638L919.125 883.304L918.938 883.467L918.682 883.444L897.254 880.648L897.114 880.625L896.998 880.555L883.824 871.281L877.761 870.815L873.844 881.137L873.704 881.463L873.331 881.51L858.105 882.489L859.061 892.997L868.178 909.214L868.435 909.656L868.015 909.959L861.673 914.34L863.142 924.312Z" fill="#151515"/>
<path fill-rule="evenodd" clip-rule="evenodd" d="M778.573 893.37L779.646 903.832L789.392 909.307L789.695 919.652L799.442 921.772L803.405 926.642L814.364 920.864L816.486 928.46L823.481 938.805L834.44 940.016L837.774 932.724L852.393 932.118L862.07 924.918L860.484 914.153L860.438 913.804L860.741 913.594L866.943 909.307L858.013 893.44L857.943 893.347V893.23L857.01 883.025L849.152 889.036L848.709 889.386L848.36 888.943L841.225 879.763L841.062 879.553L841.132 879.297L843.626 868.346L839.616 863.779L827.445 863.429V863.592L827.002 863.686L819.354 865.223L819.097 865.27L818.888 865.107L812.569 860.144L812.149 865.223L812.126 865.363L812.056 865.48L805.924 874.66L805.737 874.94L805.411 874.916L794.312 873.914L785.405 876.873L781.814 881.813L787.34 884.586L787.573 884.702L787.643 884.959L789.182 891.576L789.322 892.182L788.693 892.251L778.573 893.37ZM844.396 867.53L851.134 865.107L856.101 862.637L864.471 854.272L862.559 849.007L862.489 848.844L862.536 848.68L864.028 842.692L862.023 834.677L861.953 834.398L862.116 834.188L867.666 827.128L870.51 818.577L862.35 815.688L862.07 815.595L861.977 815.315L860.438 810.212L860.344 809.933L860.508 809.7L866.943 801.288L863.492 792.924L863.422 792.761L863.469 792.597L865.008 785.98L865.078 785.701L865.334 785.584L873.915 781.553L878.158 777.336L869.158 759.861L869.065 759.675L869.111 759.488L870.417 753.43L860.717 757.578L860.484 757.671L860.251 757.578L847.637 752.032L833.204 754.013L827.724 760.467L827.561 760.676H827.305L812.476 760.607L812.172 800.519L817.559 799.82L818.118 799.751L818.188 800.31L819.191 808.278L826.722 816.294L826.815 816.387L826.862 816.48L829.357 823.447L836.352 828.433L836.841 828.782L836.445 829.248L831.152 835.493L835.419 840.223L835.629 840.456L835.559 840.758L833.53 848.913L833.484 849.123L833.297 849.24L827.934 852.665L827.491 862.218L839.872 862.591H840.129L840.292 862.777L844.396 867.53Z" fill="#151515"/>
<path fill-rule="evenodd" clip-rule="evenodd" d="M701.628 802.896L716.341 873.402L724.245 872.19L729.724 864.291L734.901 866.412L736.44 874.637L753.158 883.747L766.262 878.877L773.257 881.93L778.27 892.275L787.899 891.156L786.57 885.401L780.695 882.465L780.088 882.163L780.485 881.627L784.565 876.011L784.682 875.872L784.845 875.802L794.032 872.749L794.148 872.703L794.265 872.726L805.154 873.705L811.006 864.921L811.519 858.956L811.589 857.907L812.428 858.56L819.353 864.012L826.325 862.614L826.815 852.362L826.838 852.059L827.071 851.896L832.504 848.447L834.416 840.805L830.032 835.935L829.683 835.563L830.009 835.19L835.232 829.015L828.587 824.285L828.447 824.192L828.377 824.006L825.859 816.992L818.304 808.907L818.164 808.768L818.141 808.605L817.185 801.009L811.915 801.684L805.084 807.882L804.897 808.045L804.641 808.022L791.583 806.787L787.643 809.816L787.293 810.072L786.943 809.816L782.886 806.647L771.531 817.668L771.135 818.064L770.762 817.668L761.901 809.14L761.761 809.024L761.738 808.861L760.176 802.337L752.901 792.644L722.893 802.943L722.683 803.012L722.496 802.919L716.131 800.193L713.216 802.244L712.913 802.453L712.587 802.244L707.807 799.261L701.628 802.896Z" fill="#151515"/>
<path fill-rule="evenodd" clip-rule="evenodd" d="M678.684 773.002L694.422 773.352L688.034 780.039L701.231 801.824L707.55 798.12L707.829 797.956L708.132 798.12L712.866 801.102L715.734 799.098L715.99 798.912L716.27 799.028L722.729 801.801L752.924 791.432L753.297 791.293L753.553 791.619L761.154 801.754L761.224 801.848L761.248 801.964L762.787 808.441L771.134 816.48L782.466 805.482L782.815 805.133L783.212 805.436L787.292 808.651L791.046 805.762L791.233 805.622L791.466 805.645L804.5 806.88L811.098 800.892L811.402 760.583H806.179L798.741 766.781L798.274 767.154L797.925 766.688L794.754 762.564L794.614 762.401L794.637 762.191L795.546 746.953L773.652 746.347L773.326 746.324L773.186 746.044L769.222 738.751L757.867 739.077H757.424L757.307 738.658L755.115 730.526L747.98 721.23L709.648 703.009V715.405V715.731L709.368 715.894L702.14 720.111L704.262 728.243L704.448 728.989L703.679 728.942L694.306 728.313L687.008 731.365L682.764 738.961L683.697 760.933V761.049L683.65 761.189L678.684 773.002Z" fill="#151515"/>
<path fill-rule="evenodd" clip-rule="evenodd" d="M619.414 721.905L623.821 723.163L624.124 731.085L621.372 734.114L623.215 739.59L617.129 746.58L618.341 751.753L631.422 754.805L632.028 761.795L638.417 762.098L643.29 763.309L648.163 768.785L641.168 774.563V779.433L648.163 777.313L654.249 780.645L659.728 779.433L664.298 775.495L677.402 773.095L682.555 760.863L681.623 738.844V738.681L681.693 738.541L686.123 730.643L686.216 730.456L686.403 730.386L694.004 727.218L694.12 727.171H694.26L702.957 727.754L700.952 719.971L700.836 719.575L701.209 719.342L708.53 715.078V684.322L703.307 678.777L702.957 678.428L703.284 678.031L708.81 671.251L708.32 667.057L698.014 674.117L697.874 674.234L697.688 674.21L689.76 673.884H689.62L689.504 673.814L681.763 669.48L673.392 670.739L673.182 670.762L672.995 670.622L662.013 662.793L657.07 661.861L656.207 661.698L656.72 660.976L660.241 655.99L654.948 650.724L644.736 660.626L643.803 669.9L643.78 670.086L643.686 670.203L640.702 673.791L641.495 676.703L647.884 679.127L648.117 679.22L648.21 679.476L650.425 685.487L650.472 685.627L650.448 685.79L649.189 691.476L649.166 691.592L649.096 691.662L646.881 695.157L646.671 695.483L646.298 695.39L638.697 693.875L633.008 700.166L631.445 707.296L631.422 707.483L631.282 707.599L621.256 716.989L619.414 721.905Z" fill="#151515"/>
<path fill-rule="evenodd" clip-rule="evenodd" d="M831.875 641.614L823.62 635.719L807.159 645.179L806.832 645.342L806.553 645.132L792.703 634.997L773 634.694L772.814 634.67L772.697 634.6L759.71 625.933L750.43 623.253L741.779 629.801L735.321 650.444L735.181 650.887L734.714 650.84L727.136 649.908L721.307 653.706L720.118 659.997L720.048 660.254L719.838 660.393L709.392 666.358L709.975 671.368L709.999 671.601L709.835 671.787L704.473 678.358L709.509 683.693L709.649 683.857V684.09V701.751L748.588 720.274L748.704 720.321L748.798 720.437L756.072 729.921L756.142 730.014L756.189 730.13L758.287 737.912L769.549 737.61H769.899L770.062 737.912L774.026 745.229L796.177 745.835L796.76 745.858L796.713 746.44L795.78 762.051L798.462 765.523L805.597 759.581L805.76 759.442H805.97H811.985H812.545L827.118 759.512L832.574 753.104L832.714 752.918L832.924 752.894L847.706 750.867L847.87 750.844L848.01 750.914L860.554 756.413L870.72 752.056L871.21 741.71L871.233 741.431L871.419 741.291L882.005 733.229L883.334 728.336L874.147 725.447L874.031 725.4L873.914 725.307L867.292 718.667L867.152 718.527L867.129 718.34L866.103 709.673L866.08 709.37L866.313 709.184L877.855 699.141L878.321 693.27L870.697 692.314L870.37 692.291L870.254 692.012L861.696 674.42L832.411 669.877L831.921 669.807V669.317V661.162V660.976L832.038 660.813L835.932 655.943L831.875 641.614Z" fill="#151515"/>
<path fill-rule="evenodd" clip-rule="evenodd" d="M869.647 784.839L866.15 786.493L864.704 792.667L868.225 801.172L868.341 801.475L868.132 801.731L861.673 810.166L863.049 814.709L871.442 817.691L871.979 817.878L871.792 818.39L868.738 827.571L868.714 827.664L868.644 827.734L863.212 834.677L865.17 842.553L865.217 842.692L865.17 842.832L863.701 848.774L865.66 854.226L865.8 854.575L865.543 854.808L856.87 863.476L856.8 863.546L856.73 863.592L851.623 866.132L851.577 866.155L851.553 866.179L844.698 868.625L842.273 879.273L848.919 887.778L857.149 881.51L857.965 880.881L858.012 881.347L872.911 880.392L876.852 870.023L877.015 869.627L877.435 869.674L883.684 870.14L888.091 860.82L888.207 860.61L888.417 860.517L896.368 857.534L898.769 852.245V846.257V845.931L899.073 845.768L906.394 841.854L905.904 835.656L902.873 826.545L902.85 826.499V826.476L901.334 817.924L894.782 807.812L894.596 807.556L894.736 807.276L897.58 801.079L892.567 797.887L884.08 798.888H884.057H884.01H874.847H874.427L874.31 798.516L869.647 784.839Z" fill="#151515"/>
<path fill-rule="evenodd" clip-rule="evenodd" d="M855.728 333.495L860.904 340.252L864.518 338.668L863.422 329.254L859.808 327.39L855.728 333.495Z" fill="#151515"/>
<path fill-rule="evenodd" clip-rule="evenodd" d="M870.16 290.67L872.842 294.118L875.663 291.136L874.404 286.429L870.79 287.524L870.16 290.67Z" fill="#151515"/>
<path fill-rule="evenodd" clip-rule="evenodd" d="M969.396 124.401L980.797 126.475L978.139 117.947L970.165 118.134L969.396 124.401Z" fill="#151515"/>
<path fill-rule="evenodd" clip-rule="evenodd" d="M978.909 145.837L985.158 137.472L983.642 130.086L989.705 126.102L995.79 120.021L1002.62 126.102L1006.42 136.913L1008.71 141.666L1002.44 145.068V150.94L986.86 157.976L978.909 150.753V145.837Z" fill="#151515"/>
<path fill-rule="evenodd" clip-rule="evenodd" d="M973.196 155.134L985.158 159.677L983.455 165.363L977.953 168.391L969.978 162.893L968.649 157.58L973.196 155.134Z" fill="#151515"/>
<path fill-rule="evenodd" clip-rule="evenodd" d="M983.828 174.1L989.144 161.005L1003.76 153.782L1006.42 163.848L1010.22 162.706L1010.78 158.349L1017.43 164.803L1016.87 173.331L1011.92 181.3L1016.1 186.239L1014.96 193.625L1009.64 196.468L998.821 189.082L989.144 180.74L983.642 178.271L983.828 174.1Z" fill="#151515"/>
<path fill-rule="evenodd" clip-rule="evenodd" d="M989.914 240.295L994.274 243.51L997.492 241.623L995.23 236.87L989.914 240.295Z" fill="#151515"/>
<path fill-rule="evenodd" clip-rule="evenodd" d="M951.372 234.027L956.875 237.056L957.248 232.699L953.657 228.529L950.999 230.812L951.372 234.027Z" fill="#151515"/>
<path fill-rule="evenodd" clip-rule="evenodd" d="M985.344 252.248L987.442 254.508L990.1 252.038L987.069 248.823L985.344 252.248Z" fill="#151515"/>
<path fill-rule="evenodd" clip-rule="evenodd" d="M892.613 309.496L896.857 313.41L899.678 310.591L898.582 306.187L894.968 305.255L892.613 309.496Z" fill="#151515"/>
<path fill-rule="evenodd" clip-rule="evenodd" d="M902.827 314.505L905.182 316.253L906.744 313.271L904.086 310.288L902.827 314.505Z" fill="#151515"/>
<path fill-rule="evenodd" clip-rule="evenodd" d="M908.936 303.065L911.291 304.626L912.713 301.97L909.099 299.617L908.936 303.065Z" fill="#151515"/>
<path fill-rule="evenodd" clip-rule="evenodd" d="M913.179 296.798L915.86 298.825L918.355 295.213L914.275 292.231L912.083 293.815L913.179 296.798Z" fill="#151515"/>
<path fill-rule="evenodd" clip-rule="evenodd" d="M894.176 275.129L897.161 277.179L901.568 274.499L899.05 270.119L895.296 269.024L891.682 272.146L894.176 275.129Z" fill="#151515"/>
<path fill-rule="evenodd" clip-rule="evenodd" d="M903.596 259.751L902.5 262.43L904.855 265.715L907.373 263.059L907.536 260.077L903.596 259.751Z" fill="#151515"/>
<path fill-rule="evenodd" clip-rule="evenodd" d="M896.508 151.779L895.832 155.344L899.493 159.048L904.669 159.165L904.436 154.551L900.868 149.821L896.508 151.779Z" fill="#151515"/>
<path fill-rule="evenodd" clip-rule="evenodd" d="M919.498 124.052L924.324 125.543L929.617 124.168L926.516 117.271L922.599 114.149L919.848 116.805L919.265 121.162L919.498 124.052Z" fill="#151515"/>
<path fill-rule="evenodd" clip-rule="evenodd" d="M1116.36 570.316L1112.68 574.393L1112.56 574.533L1112.37 574.58L1103.63 576.42L1095.7 579.939L1096.14 588.723L1098.43 594.641L1098.52 594.874L1098.43 595.084L1093.93 604.986L1098.41 612.139L1098.48 612.256V612.396L1099.41 623.044L1099.43 623.207L1099.36 623.347L1092.41 636.767L1092.34 636.907L1092.2 636.977L1080.64 644.107L1084.98 651.493L1085.16 651.819L1084.93 652.122L1080.01 658.832L1082.62 667.547L1092.53 670.692L1092.83 670.785L1092.9 671.111L1094.3 677.589L1094.37 677.868L1094.16 678.078L1086.89 685.79L1086.47 691.149L1091.11 692.408L1091.39 692.477L1091.48 692.757L1093.79 699.7L1093.91 700.027L1093.65 700.283L1088.19 705.735L1085.91 713.913L1085.72 714.636L1085.09 714.263L1074.9 708.252L1074.76 708.158L1074.69 707.995L1069.84 697.394L1060.45 701.658L1059.09 710.605L1059.07 710.791L1058.95 710.908L1038.27 733.416L1039.18 743.807L1039.21 744.227L1038.81 744.39L1033.26 746.697L1032.77 746.906L1032.54 746.417L1024.59 729.222L1019.13 736.351L1018.97 736.561H1018.71L997.259 737.47L988.772 753.104L998.331 768.109L998.448 768.296L998.401 768.529L996.559 776.87L996.466 777.266L996.07 777.313L986.627 778.664L981.264 788.939L979.422 816.596L979.375 817.179L978.792 817.109L969.675 816.2L963.193 819.206V824.612L978.792 838.568L1002.23 854.902L1011.67 854.296L1012.16 854.272L1012.25 854.808L1012.62 856.393L1018.66 856.533L1029.39 848.867L1029.86 848.541L1030.18 848.983L1036.97 858.233L1057.56 874.52H1067.63H1067.91L1068.07 874.73L1075.84 884.679L1075.93 884.795L1075.95 884.958L1076.84 892.624L1087.61 894.721L1087.96 894.791L1088.05 895.141L1089.45 900.756L1098.85 897.634L1100.74 891.18H1090.92H1090.57L1090.41 890.853L1088.24 886.193L1088.03 885.727L1088.47 885.471L1093.14 882.675L1093.23 882.605L1093.35 882.582L1099.74 881.673L1112.58 872.796L1117.18 865.736L1117.22 865.666L1117.29 865.62L1126.81 857.022L1128.93 850.638L1128.95 850.568L1128.97 850.521L1134.57 840.898L1134.59 840.875L1141.4 830.367L1147.28 814.29L1151.66 801.382L1147.07 790.594L1147.02 790.454L1147.04 790.314L1148.23 778.757L1148.26 778.594L1148.37 778.454L1154.39 771.325L1147.23 765.313L1147.07 765.173L1147.04 764.987L1145.86 758.207L1145.74 757.624L1146.35 757.554L1158.7 756.017L1160.22 748.84L1160.36 748.211L1160.96 748.421L1167.56 750.751L1179.11 746.906L1182.21 739.567L1182.44 739.008L1182.98 739.31L1188.83 742.433H1194.68H1194.96L1195.12 742.666L1199.27 748.327L1223.71 741.734L1226.41 731.295L1226.55 730.806L1227.07 730.876L1231.96 731.621L1238.14 724.678L1239.01 723.723L1239.15 725.004L1239.89 732.553L1254.79 734.837L1263.56 728.756L1263.93 717.385L1254.6 710.791L1254.37 710.628V710.349L1253.58 695.996L1253.56 695.693L1253.79 695.507L1258.96 691.522L1259.1 691.406H1259.29L1272.02 691.033L1260.06 663.935L1253.65 659.485L1242.39 664.587L1241.83 664.844L1241.64 664.238L1237.54 651.912L1219.56 644.736L1210.58 646.227L1196.55 676.354L1196.52 676.424L1196.48 676.494L1187.03 687.491L1186.64 687.957L1186.19 687.538L1179.38 680.734L1175.05 688.47L1174.88 688.75L1174.56 688.773L1161.64 689.285L1152.87 695.996L1152.48 696.299L1152.13 695.926L1143.73 687.025L1143.57 686.839L1143.59 686.606L1145.16 663.539V663.446L1145.2 663.353L1152.83 645.598L1142.94 642.639L1142.68 642.569L1142.59 642.336L1137.88 631.851L1137.81 631.665L1137.86 631.478L1141.43 616.706L1133.4 612.209L1133.1 612.046L1133.12 611.697L1133.64 597.181L1127.72 585.834L1123.01 589.119L1122.84 589.235L1122.54 589.189L1115.73 588.676L1115.19 588.63V588.094V580.754V580.451L1115.47 580.288L1120.77 576.933L1116.36 570.316ZM1061.33 850.475L1060.26 844.883L1060.17 844.393L1060.66 844.23L1066.09 842.506L1063.76 834.304L1063.62 833.815L1064.11 833.629L1070.59 831.205L1071.08 831.019L1071.31 831.485L1076.37 841.597L1088.99 834.095L1089.43 833.838L1089.73 834.258L1094.09 840.339L1097.82 843.764L1102.7 841.947L1102.79 841.9H1102.88H1109.62H1109.92L1110.09 842.18L1113.42 847.469L1113.63 847.795L1113.38 848.098L1100.27 864.757L1099.95 865.177L1099.5 864.874L1091.55 859.282L1081.8 860.191L1081.62 860.214L1081.46 860.097L1075.74 856.486L1075.72 856.463L1068.89 851.5L1061.85 850.917L1061.43 850.894L1061.33 850.475Z" fill="#151515"/>
<path d="M1106.1 569.873L1105.75 570.083L1105.42 569.826L1099.11 564.864H1083.83L1083.9 564.234L1084.84 555.893L1084.86 555.73L1084.95 555.59L1093.7 545.035L1096.28 538.115L1090.64 534.201L1090.39 534.038V526.092L1085.44 520.687L1085.26 520.477L1085.3 520.198L1087.54 509.433L1081.8 505.029L1081.32 504.656L1081.73 504.19L1090.36 494.661L1087.17 454.305L1077.05 438.764L1082.11 436.155L1094.28 426.252L1094.47 426.112L1094.7 426.136L1101.88 426.974L1104.49 414.369L1104.52 414.253L1104.56 414.183L1108.13 408.87L1109.02 401.764L1109.04 401.531L1109.2 401.391L1124.15 389.555L1117.74 381.866L1117.6 381.703V369.47L1104.59 351.086L1104.52 350.993L1104.49 350.853L1102.7 341.487L1098.71 336.174L1098.57 336.011L1098.59 335.802L1099.01 330.466L1090.99 334.474L1081.87 341.487L1069.38 345.122L1064.53 353.649L1064.83 341.487L1090.08 315.321L1104.1 290.087L1110.48 267.579L1090.99 245.375L1072.73 244.769L1066.35 253.879L1059.05 255.114L1064.53 239.596L1049.6 237.755L1054.48 230.765L1045.34 223.17L1037.13 226.199L1024.05 245.677L1027.08 257.234L1013.09 258.143L1013.39 261.801L1018.57 269.397L1008.52 267.276L1003.34 272.123L991.779 270.003L990.264 264.83L973.826 265.133L974.129 274.569L954.333 277.295L940.949 287.944L930.597 288.246L922.995 294.934L919.638 308.634L926.027 320.191L916.304 322.614L890.422 318.373L875.523 318.047L870.953 326.272L870.347 347.568L879.766 356.678L884.337 367.326H871.256L859.994 346.333L851.74 346.823L851.833 347.894L859.038 363.179L859.341 363.855L858.618 363.971L850.854 365.253L849.152 374.643L856.31 389.834L856.403 390.021L856.357 390.23L854.538 397.453L854.468 397.71L854.211 397.826L837.284 405.399L835.162 413.903L846.191 428.466L858.665 431.564L859.015 431.658L859.085 432.03L861.813 447.618L860.997 449.645V449.622L856.59 460.806L856.497 461.062L856.217 461.132L844.792 464.208L848.242 472.409L848.336 472.596L848.266 472.805L844.652 483.64L853.745 495.43L853.885 495.616L853.862 495.849L851.553 517.378L858.851 527.397L858.991 527.584L858.945 527.817L856.217 543.218L867.059 551.35L867.245 551.489L867.292 551.699L869.134 562.813L869.181 563.046L869.041 563.256L859.411 576.537L858.478 588.42V588.583L858.362 588.723L843.509 607.596V622.298L855.634 629.288L856.077 629.521L855.89 629.964L853.722 635.556L853.629 635.789L853.419 635.882L842.53 640.542L842.46 640.565L842.39 640.588L833.087 641.73L837.12 655.92L837.19 656.199L837.004 656.432L833.04 661.372V668.851L862.162 673.371L862.466 673.395L862.582 673.674L871.116 691.242L878.997 692.221L879.533 692.291L879.487 692.827L878.974 699.444L878.95 699.677L878.787 699.84L867.269 709.836L868.225 718.014L874.637 724.398L884.197 727.427L884.71 727.59L884.57 728.103L883.031 733.718L882.984 733.905L882.844 734.021L872.328 742.013L871.839 752.475L871.815 752.824L871.746 752.848L870.323 759.511L879.417 777.173L879.603 777.522L879.323 777.825L874.73 782.415L874.66 782.485L874.567 782.532L870.696 784.349L875.243 797.77H883.987L892.637 796.745L892.824 796.721L893.01 796.838L898.606 800.403L899.026 800.659L898.816 801.125L895.902 807.463L902.36 817.388L902.43 817.505V817.598L903.969 826.242L907 835.376L907.024 835.446L907.047 835.516L907.537 842.133L907.583 842.506L907.257 842.692L899.889 846.583V852.502L899.842 852.618L897.301 858.21L897.207 858.443L896.974 858.513L889.023 861.495L884.733 870.536L897.534 879.553L918.589 882.302L927.729 874.683L927.822 874.59L927.962 874.567L932.835 873.425L933.115 868.555L933.138 868.276L933.371 868.112L940.856 863.336L940.273 858.094L940.203 857.627L940.693 857.488L946.265 856.02L948.037 848.587L948.154 848.191L948.55 848.144L976.414 845.698L977.813 839.29L962.261 825.357L962.051 825.194V818.577L962.377 818.414L969.326 815.175L969.489 815.105L969.629 815.128L978.326 815.99L980.121 788.799L980.145 788.683L980.191 788.566L985.764 777.918L985.88 777.662L986.184 777.615L995.51 776.287L997.236 768.575L987.629 753.5L987.443 753.197L987.606 752.917L996.419 736.701L996.559 736.421H996.886L1018.38 735.489L1024.26 727.847L1024.82 727.101L1025.22 727.94L1033.33 745.508L1037.99 743.551L1037.11 733.322L1037.08 733.066L1037.27 732.903L1058 710.348L1059.35 701.355L1059.28 701.052L1070.38 695.949L1070.61 696.462L1075.65 707.413L1085.05 712.981L1087.17 705.362L1087.21 705.199L1087.31 705.106L1092.62 699.794L1090.53 693.456L1085.7 692.151L1085.26 692.035L1085.3 691.569L1085.75 685.557L1085.77 685.348L1085.91 685.208L1093.11 677.542L1091.85 671.671L1081.99 668.525L1081.69 668.455L1081.62 668.152L1078.82 658.902L1078.75 658.646L1078.91 658.413L1083.79 651.772L1079.36 644.223L1079.08 643.734L1079.54 643.431L1091.46 636.115L1098.24 622.974L1097.36 612.628L1092.79 605.336L1092.62 605.079L1092.76 604.8L1097.29 594.827L1095.07 589.026L1095.03 588.956V588.862L1094.56 579.612L1094.54 579.216L1094.91 579.053L1103.23 575.349L1103.3 575.325H1103.35L1111.98 573.508L1115.71 569.36L1112.61 565.516L1106.1 569.873Z" fill="#151515"/>
<path d="M554.99 511.763L554.85 511.74L554.734 511.646L537.41 497.433L531.184 500.882L531.021 500.952L530.858 500.928L513.79 498.995L513.813 498.878L502.411 492.983L502.318 492.937L502.248 492.843L491.802 481.054L478.209 479.772L474.198 489.675L483.781 502.35L483.875 502.49L483.898 502.676L484.458 511.716L484.481 512.112L484.108 512.276L468.322 518.916V524.228L472.659 528.026L473.056 528.353L468.089 534.993V534.946L463.776 539.793L457.947 554.775L457.9 554.868L457.83 554.961L452.934 560.204L449.786 568.428L449.739 568.522L449.669 568.615L444.353 574.463L444.167 574.673L443.887 574.65L439.34 574.347L439.177 585.577L444.26 585.414L444.843 585.391V594.315L456.035 594.827L456.524 594.851L456.571 595.34L457.061 601.677L461.817 602.819L462.167 602.912L462.237 603.239L462.936 606.454L462.96 606.477L463.636 610.951L465.291 613.211L469.535 612.093L478.932 600.979L479.095 600.792L479.305 600.769L489.96 599.674L496.722 588.979L497.118 588.327L497.631 588.886L502.481 594.291L506.772 591.519L508.45 583.97L508.544 583.55L508.963 583.527L520.785 582.968L523.979 578.983L524.819 570.828L524.842 570.642L524.958 570.502L530.181 564.467L526.334 557.058L526.264 556.918V556.755L526.544 550.744L526.567 550.394L526.894 550.255L539.461 544.546L554.011 530.263L563.734 517.402L565.553 513.254L554.99 511.763Z" fill="#151515"/>
<path d="M43.284 588.909L49.8359 581.29L35.0999 561.951L43.8203 537.16L37.5714 531.987L32.1153 535.809L10.5708 521.083L7.84277 525.44L8.65885 542.892L0.498047 551.606L2.66649 563.582L16.843 562.767L32.6516 582.665L43.284 588.909Z" fill="#151515"/>
</svg>
