<svg width="16" height="16" viewBox="0 0 16 16" fill="none" xmlns="http://www.w3.org/2000/svg">
<path d="M3.37145 1.04297L1.79723 2.61719C0.933949 3.48047 0.746449 4.82422 1.36364 5.87891C2.05114 7.05859 2.61364 7.92969 4.96911 10.2812C7.32067 12.6367 7.96129 12.957 9.12145 13.6367C10.18 14.2539 11.5199 14.0664 12.3793 13.2031L13.9574 11.6289L10.9105 8.58594L9.67223 9.82422C9.52379 9.75781 9.30114 9.64062 9.04332 9.47656C8.51207 9.13672 7.83239 8.61719 7.23473 8.01562C6.63317 7.41797 6.04723 6.67187 5.64098 6.07031C5.44176 5.77344 5.28161 5.50391 5.19567 5.32812C5.19176 5.32031 5.19176 5.32031 5.18786 5.3125L6.41442 4.08594L3.37145 1.04297ZM3.37145 2.45703L5.00036 4.08594L4.28551 4.80469C4.13707 4.95312 4.12145 5.11719 4.12536 5.21094C4.12536 5.30078 4.14098 5.36328 4.15661 5.42188C4.19176 5.54297 4.23864 5.64844 4.29723 5.77344C4.41832 6.01562 4.59411 6.30469 4.81286 6.63281C5.25036 7.28125 5.86754 8.06641 6.52379 8.72656C7.18395 9.38281 7.91051 9.9375 8.50817 10.3164C8.80504 10.5078 9.06676 10.6523 9.28942 10.75C9.4027 10.8008 9.50426 10.8398 9.62536 10.8633C9.68395 10.875 9.75036 10.8828 9.8402 10.875C9.93004 10.8711 10.0707 10.8398 10.1957 10.7148L10.9105 10L12.5433 11.6289L11.6722 12.5C11.1293 13.043 10.2894 13.1602 9.62536 12.7734C8.44567 12.082 7.99645 11.8984 5.67223 9.57812C3.35192 7.25391 2.90661 6.53906 2.22692 5.375C1.8402 4.71094 1.95739 3.87109 2.50036 3.32812L3.37145 2.45703Z" fill="#E4B564"/>
</svg>
